<mxfile host="app.diagrams.net" modified="2020-03-16T17:03:47.826Z" agent="Mozilla/5.0 (Windows NT 10.0; Win64; x64) AppleWebKit/537.36 (KHTML, like Gecko) Chrome/80.0.3987.132 Safari/537.36" etag="eD4ZNqCGOrV0r3q0OoOl" version="12.8.5" type="github">
  <diagram id="2f404044-711c-603c-8f00-f6bb4c023d3c" name="Page-1">
    <mxGraphModel dx="2249" dy="1349" grid="1" gridSize="3" guides="1" tooltips="1" connect="1" arrows="1" fold="1" page="1" pageScale="1" pageWidth="827" pageHeight="583" background="#ffffff" math="0" shadow="0">
      <root>
        <mxCell id="0" />
        <mxCell id="1" parent="0" />
        <mxCell id="63" value="" style="swimlane;shadow=0;strokeColor=#21A0DF;fillColor=#ffffff;fontColor=none;align=right;startSize=0;collapsible=0;noLabel=1;strokeWidth=1;fontFamily=Salesforce Sans;" parent="1" vertex="1">
          <mxGeometry x="-10" y="-230" width="2130" height="1310" as="geometry" />
        </mxCell>
        <mxCell id="106" value="" style="line;strokeWidth=1;direction=south;html=1;shadow=0;labelBackgroundColor=none;fillColor=none;gradientColor=none;fontSize=12;fontColor=#4277BB;align=right;strokeColor=#21A0DF;" parent="63" vertex="1">
          <mxGeometry x="1450" width="440" height="430" as="geometry" />
        </mxCell>
        <mxCell id="144" value="" style="swimlane;shadow=0;labelBackgroundColor=#007FFF;strokeColor=#21A0DF;fillColor=none;gradientColor=none;fontColor=#000000;align=right;collapsible=0;startSize=0;strokeWidth=1;container=0;" parent="63" vertex="1">
          <mxGeometry x="1300" y="240" width="350" height="170" as="geometry" />
        </mxCell>
        <mxCell id="E9kqae5VklVFvgJIegH0-355" value="" style="group" vertex="1" connectable="0" parent="144">
          <mxGeometry x="20" y="20" width="80" height="110" as="geometry" />
        </mxCell>
        <mxCell id="E9kqae5VklVFvgJIegH0-331" value="" style="shape=image;verticalLabelPosition=bottom;verticalAlign=top;imageAspect=0;image=https://velocity.my.salesforce.com/img/icon/t4v35/standard/account_120.png;shadow=0;strokeColor=#21A0DF;strokeWidth=1;fillColor=#ffffff;fontFamily=Salesforce Sans;fontColor=#21A0DF;imageBackground=#A094ED;" vertex="1" parent="E9kqae5VklVFvgJIegH0-355">
          <mxGeometry width="80" height="80" as="geometry" />
        </mxCell>
        <mxCell id="E9kqae5VklVFvgJIegH0-352" value="&lt;p&gt;&lt;font face=&quot;Salesforce Sans&quot; style=&quot;line-height: 100% ; font-weight: normal ; font-size: 15px&quot; color=&quot;#8c8c8c&quot;&gt;ACCOUNTS&lt;/font&gt;&lt;/p&gt;" style="text;strokeColor=none;fillColor=none;html=1;fontSize=24;fontStyle=1;verticalAlign=middle;align=center;shadow=0;fontColor=#BABABA;" vertex="1" parent="E9kqae5VklVFvgJIegH0-355">
          <mxGeometry x="7" y="70" width="66" height="40" as="geometry" />
        </mxCell>
        <mxCell id="E9kqae5VklVFvgJIegH0-356" value="" style="group" vertex="1" connectable="0" parent="144">
          <mxGeometry x="120" y="18.29" width="80" height="111.71000000000001" as="geometry" />
        </mxCell>
        <mxCell id="E9kqae5VklVFvgJIegH0-332" value="" style="shape=image;verticalLabelPosition=bottom;verticalAlign=top;imageAspect=0;image=https://velocity.my.salesforce.com/img/icon/t4v35/standard/contact_120.png;shadow=0;strokeColor=#21A0DF;strokeWidth=1;fillColor=#ffffff;fontFamily=Salesforce Sans;fontColor=#21A0DF;imageBackground=#A094ED;" vertex="1" parent="E9kqae5VklVFvgJIegH0-356">
          <mxGeometry width="80" height="80" as="geometry" />
        </mxCell>
        <mxCell id="E9kqae5VklVFvgJIegH0-353" value="&lt;p&gt;&lt;font face=&quot;Salesforce Sans&quot; style=&quot;line-height: 100% ; font-weight: normal ; font-size: 15px&quot; color=&quot;#8c8c8c&quot;&gt;CONTACTS&lt;/font&gt;&lt;/p&gt;" style="text;strokeColor=none;fillColor=none;html=1;fontSize=24;fontStyle=1;verticalAlign=middle;align=center;shadow=0;fontColor=#BABABA;" vertex="1" parent="E9kqae5VklVFvgJIegH0-356">
          <mxGeometry x="7" y="71.71000000000001" width="66" height="40" as="geometry" />
        </mxCell>
        <mxCell id="E9kqae5VklVFvgJIegH0-357" value="" style="group" vertex="1" connectable="0" parent="144">
          <mxGeometry x="220" y="18.29" width="80" height="111.71000000000001" as="geometry" />
        </mxCell>
        <mxCell id="E9kqae5VklVFvgJIegH0-333" value="" style="shape=image;verticalLabelPosition=bottom;verticalAlign=top;imageAspect=0;image=https://velocity.my.salesforce.com/img/icon/t4v35/standard/opportunity_120.png;shadow=0;strokeColor=#21A0DF;strokeWidth=1;fillColor=#ffffff;fontFamily=Salesforce Sans;fontColor=#21A0DF;imageBackground=#FCB95B;" vertex="1" parent="E9kqae5VklVFvgJIegH0-357">
          <mxGeometry width="80" height="80" as="geometry" />
        </mxCell>
        <mxCell id="E9kqae5VklVFvgJIegH0-354" value="&lt;p&gt;&lt;font face=&quot;Salesforce Sans&quot; style=&quot;line-height: 100% ; font-weight: normal ; font-size: 15px&quot; color=&quot;#8c8c8c&quot;&gt;LOANS&lt;/font&gt;&lt;/p&gt;" style="text;strokeColor=none;fillColor=none;html=1;fontSize=24;fontStyle=1;verticalAlign=middle;align=center;shadow=0;fontColor=#BABABA;" vertex="1" parent="E9kqae5VklVFvgJIegH0-357">
          <mxGeometry x="7" y="71.71000000000001" width="66" height="40" as="geometry" />
        </mxCell>
        <mxCell id="150" value="ENTERPRISE&lt;div&gt;MIDDLEWARE&lt;/div&gt;" style="aspect=fixed;perimeter=ellipsePerimeter;html=1;align=center;shadow=0;dashed=0;image;image=img/lib/ibm/applications/enterprise_applications.svg;labelBackgroundColor=none;strokeColor=#4277BB;strokeWidth=2;fillColor=#E52134;gradientColor=none;fontSize=12;fontColor=#4277BB;" parent="63" vertex="1">
          <mxGeometry x="1380" y="1180" width="60" height="60" as="geometry" />
        </mxCell>
        <mxCell id="151" value="TRANSFORMATION&lt;div&gt;&amp;amp; CONNECTIVITY&lt;/div&gt;" style="aspect=fixed;perimeter=ellipsePerimeter;html=1;align=center;shadow=0;dashed=0;image;image=img/lib/ibm/infrastructure/transformation_connectivity.svg;labelBackgroundColor=none;strokeColor=#4277BB;strokeWidth=2;fillColor=#E52134;gradientColor=none;fontSize=12;fontColor=#4277BB;" parent="63" vertex="1">
          <mxGeometry x="1280" y="1180" width="60" height="60" as="geometry" />
        </mxCell>
        <mxCell id="152" value="ENTERPRISE&lt;div&gt;DATA&lt;/div&gt;" style="aspect=fixed;perimeter=ellipsePerimeter;html=1;align=center;shadow=0;dashed=0;image;image=img/lib/ibm/data/enterprise_data.svg;labelBackgroundColor=none;strokeColor=#4277BB;strokeWidth=2;fillColor=#E52134;gradientColor=none;fontSize=12;fontColor=#4277BB;" parent="63" vertex="1">
          <mxGeometry x="1502.5" y="1170" width="60" height="60" as="geometry" />
        </mxCell>
        <mxCell id="185" style="edgeStyle=orthogonalEdgeStyle;rounded=0;html=1;exitX=0.75;exitY=0;entryX=0.75;entryY=0;labelBackgroundColor=#ffffff;startArrow=classic;startFill=1;startSize=4;endSize=4;jettySize=auto;orthogonalLoop=1;strokeColor=#EDC11C;strokeWidth=2;fontSize=12;fontColor=#4277BB;" parent="63" edge="1">
          <mxGeometry relative="1" as="geometry">
            <mxPoint x="73.41640786499852" y="344.16718427000274" as="sourcePoint" />
            <mxPoint x="73.41640786499852" y="344.16718427000274" as="targetPoint" />
          </mxGeometry>
        </mxCell>
        <mxCell id="190" value="" style="line;strokeWidth=1;direction=south;html=1;shadow=0;labelBackgroundColor=none;fillColor=none;gradientColor=none;fontSize=12;fontColor=#4277BB;align=right;strokeColor=#21A0DF;" parent="63" vertex="1">
          <mxGeometry x="175" y="540" width="10" height="410" as="geometry" />
        </mxCell>
        <mxCell id="200" value="" style="line;strokeWidth=1;direction=south;html=1;shadow=0;labelBackgroundColor=none;fillColor=none;gradientColor=none;fontSize=12;fontColor=#4277BB;align=right;strokeColor=#21A0DF;" parent="63" vertex="1">
          <mxGeometry x="1410" y="546" width="430" height="754" as="geometry" />
        </mxCell>
        <mxCell id="E9kqae5VklVFvgJIegH0-210" value="" style="html=1;whiteSpace=wrap;shape=image;fontSize=11;spacing=0;strokeColor=none;strokeOpacity=100;strokeWidth=0;image=https://images.lucidchart.com/images/631ec8e3-7df5-4a26-a01b-f801cec313e8/content;" vertex="1" parent="63">
          <mxGeometry x="1256" y="720" width="87" height="86" as="geometry" />
        </mxCell>
        <mxCell id="E9kqae5VklVFvgJIegH0-212" value="" style="html=1;whiteSpace=wrap;shape=image;fontSize=11;spacing=0;strokeColor=none;strokeOpacity=100;strokeWidth=0;image=https://images.lucidchart.com/images/cd1c9a4d-6211-48b1-9f71-e1814011e8bf/content;" vertex="1" parent="63">
          <mxGeometry x="1810" y="1130" width="243" height="58" as="geometry" />
        </mxCell>
        <mxCell id="E9kqae5VklVFvgJIegH0-200" value="" style="html=1;whiteSpace=wrap;shape=image;fontSize=11;spacing=0;strokeColor=none;strokeOpacity=100;strokeWidth=0;image=https://images.lucidchart.com/images/4ca05dfd-4784-447d-9454-b3968a441c91/content;" vertex="1" parent="63">
          <mxGeometry x="640" y="130" width="81" height="80" as="geometry" />
        </mxCell>
        <mxCell id="E9kqae5VklVFvgJIegH0-201" value="LIGHTNING PLATFORM" style="html=1;whiteSpace=wrap;;fontSize=16;fontColor=#666666;fontStyle=1;align=center;spacing=5;strokeOpacity=0;fillOpacity=100;fillColor=#ffffff;strokeWidth=0.6;fontFamily=Salesforce Sans;" vertex="1" parent="63">
          <mxGeometry x="730" y="139.5" width="209" height="61" as="geometry" />
        </mxCell>
        <mxCell id="E9kqae5VklVFvgJIegH0-213" value="" style="html=1;whiteSpace=wrap;shape=image;fontSize=11;spacing=0;strokeColor=none;strokeOpacity=100;strokeWidth=0;image=https://images.lucidchart.com/images/759b1f81-6c2d-4972-b7b8-8f71e24e5454/content;" vertex="1" parent="63">
          <mxGeometry x="1694.5" y="61" width="221" height="69" as="geometry" />
        </mxCell>
        <mxCell id="E9kqae5VklVFvgJIegH0-215" value="" style="html=1;whiteSpace=wrap;shape=image;fontSize=11;spacing=0;strokeColor=none;strokeOpacity=100;strokeWidth=0;image=https://images.lucidchart.com/images/542043e0-420e-42d1-a4f5-1d0b0fb63157/content;" vertex="1" parent="63">
          <mxGeometry x="989" y="32.5" width="161" height="107" as="geometry" />
        </mxCell>
        <mxCell id="E9kqae5VklVFvgJIegH0-311" value="" style="group" vertex="1" connectable="0" parent="63">
          <mxGeometry x="1827" y="290" width="96" height="109" as="geometry" />
        </mxCell>
        <mxCell id="E9kqae5VklVFvgJIegH0-207" value="" style="html=1;whiteSpace=wrap;shape=image;fontSize=11;spacing=0;strokeColor=none;strokeOpacity=100;strokeWidth=0;image=https://images.lucidchart.com/images/8f882a7d-d8af-4fff-9819-b9c548308940/content;" vertex="1" parent="E9kqae5VklVFvgJIegH0-311">
          <mxGeometry x="11" width="74" height="74" as="geometry" />
        </mxCell>
        <mxCell id="E9kqae5VklVFvgJIegH0-208" value="ENGAGE" style="html=1;whiteSpace=wrap;;fontSize=16;fontColor=#666666;fontStyle=1;align=center;spacing=5;strokeOpacity=0;fillOpacity=100;fillColor=#ffffff;strokeWidth=0.6;" vertex="1" parent="E9kqae5VklVFvgJIegH0-311">
          <mxGeometry y="80" width="96" height="29" as="geometry" />
        </mxCell>
        <mxCell id="98" value="" style="swimlane;shadow=0;labelBackgroundColor=#007FFF;strokeColor=#21A0DF;fillColor=none;gradientColor=none;fontColor=#000000;align=right;collapsible=0;startSize=0;strokeWidth=1;" parent="63" vertex="1">
          <mxGeometry x="833" y="1042" width="142" height="159" as="geometry" />
        </mxCell>
        <mxCell id="180" value="PROVISION" style="aspect=fixed;perimeter=ellipsePerimeter;html=1;align=center;shadow=0;dashed=0;image;image=img/lib/ibm/devops/provision.svg;labelBackgroundColor=none;strokeColor=#4277BB;strokeWidth=2;fillColor=none;gradientColor=none;fontSize=12;fontColor=#4277BB;" parent="98" vertex="1">
          <mxGeometry x="42" y="44" width="60" height="60" as="geometry" />
        </mxCell>
        <mxCell id="184" value="INFRASTRUCTURE&lt;div&gt;AUTOMATION&lt;/div&gt;" style="text;html=1;align=left;verticalAlign=middle;fontColor=#4277BB;shadow=0;dashed=0;strokeColor=none;fillColor=none;labelBackgroundColor=none;fontStyle=1;fontSize=12;spacingLeft=5;" parent="98" vertex="1">
          <mxGeometry x="7" y="10" width="123" height="20" as="geometry" />
        </mxCell>
        <mxCell id="162" value="" style="swimlane;shadow=1;labelBackgroundColor=#007FFF;strokeColor=#21A0DF;fillColor=none;gradientColor=none;fontColor=#000000;align=right;collapsible=0;startSize=0;strokeWidth=1;swimlaneFillColor=#ffffff;" parent="63" vertex="1">
          <mxGeometry x="275" y="851" width="190" height="140" as="geometry" />
        </mxCell>
        <mxCell id="163" value="RUNTIME" style="aspect=fixed;perimeter=ellipsePerimeter;html=1;align=center;shadow=0;dashed=0;image;image=img/lib/ibm/applications/runtime_services.svg;labelBackgroundColor=none;strokeColor=#4277BB;strokeWidth=2;fillColor=none;gradientColor=none;fontSize=12;fontColor=#4277BB;" parent="162" vertex="1">
          <mxGeometry x="18" y="35" width="60" height="60" as="geometry" />
        </mxCell>
        <mxCell id="164" value="SERVICES" style="aspect=fixed;perimeter=ellipsePerimeter;html=1;align=center;shadow=0;dashed=0;image;image=img/lib/ibm/blockchain/services.svg;labelBackgroundColor=none;strokeColor=#4277BB;strokeWidth=2;fillColor=none;gradientColor=none;fontSize=12;fontColor=#4277BB;" parent="162" vertex="1">
          <mxGeometry x="103" y="35" width="60" height="60" as="geometry" />
        </mxCell>
        <mxCell id="181" value="PaaS (Platform as a Service)" style="text;html=1;align=left;verticalAlign=middle;fontColor=#4277BB;shadow=0;dashed=0;strokeColor=none;fillColor=none;labelBackgroundColor=none;fontStyle=1;fontSize=12;spacingLeft=5;" parent="162" vertex="1">
          <mxGeometry x="5" y="7" width="150" height="20" as="geometry" />
        </mxCell>
        <mxCell id="165" value="" style="swimlane;shadow=0;labelBackgroundColor=#007FFF;strokeColor=#21A0DF;fillColor=none;gradientColor=none;fontColor=#000000;align=right;collapsible=0;startSize=0;strokeWidth=1;swimlaneFillColor=#ffffff;" parent="63" vertex="1">
          <mxGeometry x="576" y="851" width="680" height="140" as="geometry" />
        </mxCell>
        <mxCell id="168" value="CONTAINER&lt;div&gt;ORCHESTRATION&lt;/div&gt;" style="aspect=fixed;perimeter=ellipsePerimeter;html=1;align=center;shadow=0;dashed=0;image;image=img/lib/ibm/devops/release_management.svg;labelBackgroundColor=none;strokeColor=#4277BB;strokeWidth=2;fillColor=none;gradientColor=none;fontSize=12;fontColor=#4277BB;" parent="165" vertex="1">
          <mxGeometry x="30" y="34" width="60" height="60" as="geometry" />
        </mxCell>
        <mxCell id="169" value="CLUSTER&lt;div&gt;MANAGEMENT&lt;/div&gt;" style="aspect=fixed;perimeter=ellipsePerimeter;html=1;align=center;shadow=0;dashed=0;image;image=img/lib/ibm/management/cluster_management.svg;labelBackgroundColor=none;strokeColor=#4277BB;strokeWidth=2;fillColor=none;gradientColor=none;fontSize=12;fontColor=#4277BB;" parent="165" vertex="1">
          <mxGeometry x="127" y="34" width="60" height="60" as="geometry" />
        </mxCell>
        <mxCell id="170" value="CONTAINER&lt;div&gt;SECURITY&lt;/div&gt;" style="aspect=fixed;perimeter=ellipsePerimeter;html=1;align=center;shadow=0;dashed=0;image;image=img/lib/ibm/blockchain/certificate_authority.svg;labelBackgroundColor=none;strokeColor=#4277BB;strokeWidth=2;fillColor=none;gradientColor=none;fontSize=12;fontColor=#4277BB;" parent="165" vertex="1">
          <mxGeometry x="220" y="34" width="60" height="60" as="geometry" />
        </mxCell>
        <mxCell id="171" value="IMAGE&lt;div&gt;REPOSITORY&lt;/div&gt;" style="aspect=fixed;perimeter=ellipsePerimeter;html=1;align=center;shadow=0;dashed=0;image;image=img/lib/ibm/data/file_repository.svg;labelBackgroundColor=none;strokeColor=#4277BB;strokeWidth=2;fillColor=none;gradientColor=none;fontSize=12;fontColor=#4277BB;" parent="165" vertex="1">
          <mxGeometry x="320" y="34" width="60" height="60" as="geometry" />
        </mxCell>
        <mxCell id="172" value="ROUTING&lt;div&gt;SERVICES&lt;/div&gt;" style="aspect=fixed;perimeter=ellipsePerimeter;html=1;align=center;shadow=0;dashed=0;image;image=img/lib/ibm/infrastructure/load_balancing_routing.svg;labelBackgroundColor=none;strokeColor=#4277BB;strokeWidth=2;fillColor=none;gradientColor=none;fontSize=12;fontColor=#4277BB;" parent="165" vertex="1">
          <mxGeometry x="415" y="34" width="60" height="60" as="geometry" />
        </mxCell>
        <mxCell id="173" value="MICROSERVICES&lt;div&gt;MESH&lt;/div&gt;" style="aspect=fixed;perimeter=ellipsePerimeter;html=1;align=center;shadow=0;dashed=0;image;image=img/lib/ibm/infrastructure/microservices_mesh.svg;labelBackgroundColor=none;strokeColor=#4277BB;strokeWidth=2;fillColor=none;gradientColor=none;fontSize=12;fontColor=#4277BB;" parent="165" vertex="1">
          <mxGeometry x="530" y="34.00000000000006" width="60" height="60" as="geometry" />
        </mxCell>
        <mxCell id="182" value="CaaS (Container as a Service)" style="text;html=1;align=left;verticalAlign=middle;fontColor=#4277BB;shadow=0;dashed=0;strokeColor=none;fillColor=none;labelBackgroundColor=none;fontStyle=1;fontSize=14;spacingLeft=5;" parent="165" vertex="1">
          <mxGeometry x="52" y="7" width="150" height="20" as="geometry" />
        </mxCell>
        <mxCell id="174" value="" style="swimlane;shadow=0;labelBackgroundColor=#007FFF;strokeColor=#21A0DF;fillColor=none;gradientColor=none;fontColor=#000000;align=right;collapsible=0;startSize=0;strokeWidth=1;" parent="63" vertex="1">
          <mxGeometry x="270" y="1042" width="475" height="159" as="geometry" />
        </mxCell>
        <mxCell id="175" value="EXISTING&lt;div&gt;ENTERPRISE&lt;/div&gt;&lt;div&gt;SYSTEMS&lt;/div&gt;" style="aspect=fixed;perimeter=ellipsePerimeter;html=1;align=center;shadow=0;dashed=0;image;image=img/lib/ibm/blockchain/existing_enterprise_systems.svg;labelBackgroundColor=none;strokeColor=#4277BB;strokeWidth=2;fillColor=none;gradientColor=none;fontSize=12;fontColor=#4277BB;" parent="174" vertex="1">
          <mxGeometry x="20" y="44" width="60" height="60" as="geometry" />
        </mxCell>
        <mxCell id="176" value="INFRASTRUCTURE&lt;div&gt;SERVICES&lt;/div&gt;" style="aspect=fixed;perimeter=ellipsePerimeter;html=1;align=center;shadow=0;dashed=0;image;image=img/lib/ibm/infrastructure/infrastructure_services.svg;labelBackgroundColor=none;strokeColor=#4277BB;strokeWidth=2;fillColor=none;gradientColor=none;fontSize=12;fontColor=#4277BB;" parent="174" vertex="1">
          <mxGeometry x="113" y="44" width="60" height="60" as="geometry" />
        </mxCell>
        <mxCell id="177" value="DATA&lt;div&gt;SOURCES&lt;/div&gt;" style="aspect=fixed;perimeter=ellipsePerimeter;html=1;align=center;shadow=0;dashed=0;image;image=img/lib/ibm/data/data_sources.svg;labelBackgroundColor=none;strokeColor=#4277BB;strokeWidth=2;fillColor=none;gradientColor=none;fontSize=12;fontColor=#4277BB;" parent="174" vertex="1">
          <mxGeometry x="205" y="44" width="60" height="60" as="geometry" />
        </mxCell>
        <mxCell id="178" value="ROUTING&lt;div&gt;SERVICES&lt;/div&gt;" style="aspect=fixed;perimeter=ellipsePerimeter;html=1;align=center;shadow=0;dashed=0;image;image=img/lib/ibm/infrastructure/load_balancing_routing.svg;labelBackgroundColor=none;strokeColor=#4277BB;strokeWidth=2;fillColor=none;gradientColor=none;fontSize=12;fontColor=#4277BB;" parent="174" vertex="1">
          <mxGeometry x="298" y="44" width="60" height="60" as="geometry" />
        </mxCell>
        <mxCell id="179" value="CONTAINER&lt;div&gt;SECURITY&lt;/div&gt;" style="aspect=fixed;perimeter=ellipsePerimeter;html=1;align=center;shadow=0;dashed=0;image;image=img/lib/ibm/blockchain/certificate_authority.svg;labelBackgroundColor=none;strokeColor=#4277BB;strokeWidth=2;fillColor=none;gradientColor=none;fontSize=12;fontColor=#4277BB;" parent="174" vertex="1">
          <mxGeometry x="390" y="44" width="60" height="60" as="geometry" />
        </mxCell>
        <mxCell id="183" value="INFRASTRUCTURE" style="text;html=1;align=left;verticalAlign=middle;fontColor=#4277BB;shadow=0;dashed=0;strokeColor=none;fillColor=none;labelBackgroundColor=none;fontStyle=1;fontSize=12;spacingLeft=5;" parent="174" vertex="1">
          <mxGeometry x="8" y="5" width="150" height="20" as="geometry" />
        </mxCell>
        <mxCell id="153" value="" style="swimlane;shadow=0;labelBackgroundColor=#007FFF;strokeColor=#21A0DF;fillColor=none;gradientColor=none;fontColor=#000000;align=right;collapsible=0;startSize=0;strokeWidth=1;" parent="63" vertex="1">
          <mxGeometry x="275" y="678" width="850" height="133" as="geometry" />
        </mxCell>
        <mxCell id="154" value="NEXT GENERATION MANAGEMENT" style="text;html=1;align=left;verticalAlign=middle;fontColor=#4277BB;shadow=0;dashed=0;strokeColor=none;fillColor=none;labelBackgroundColor=none;fontStyle=1;fontSize=12;spacingLeft=5;" parent="153" vertex="1">
          <mxGeometry x="6" y="10" width="245" height="20" as="geometry" />
        </mxCell>
        <mxCell id="155" value="CLOUD&lt;div&gt;MANAGEMENT&lt;/div&gt;" style="aspect=fixed;perimeter=ellipsePerimeter;html=1;align=center;shadow=0;dashed=0;image;image=img/lib/ibm/management/cloud_management.svg;labelBackgroundColor=none;strokeColor=#4277BB;strokeWidth=2;fillColor=#E52134;gradientColor=none;fontSize=12;fontColor=#4277BB;" parent="153" vertex="1">
          <mxGeometry x="237" y="24" width="60" height="60" as="geometry" />
        </mxCell>
        <mxCell id="156" value="LOGGING" style="aspect=fixed;perimeter=ellipsePerimeter;html=1;align=center;shadow=0;dashed=0;image;image=img/lib/ibm/infrastructure/monitoring_logging.svg;labelBackgroundColor=none;strokeColor=#4277BB;strokeWidth=2;fillColor=#E52134;gradientColor=none;fontSize=12;fontColor=#4277BB;" parent="153" vertex="1">
          <mxGeometry x="334" y="24" width="60" height="60" as="geometry" />
        </mxCell>
        <mxCell id="157" value="MONITORING" style="aspect=fixed;perimeter=ellipsePerimeter;html=1;align=center;shadow=0;dashed=0;image;image=img/lib/ibm/infrastructure/monitoring.svg;labelBackgroundColor=none;strokeColor=#4277BB;strokeWidth=2;fillColor=#E52134;gradientColor=none;fontSize=12;fontColor=#4277BB;" parent="153" vertex="1">
          <mxGeometry x="431" y="24" width="60" height="60" as="geometry" />
        </mxCell>
        <mxCell id="158" value="DASHBOARD" style="aspect=fixed;perimeter=ellipsePerimeter;html=1;align=center;shadow=0;dashed=0;image;image=img/lib/ibm/infrastructure/dashboard.svg;labelBackgroundColor=none;strokeColor=#4277BB;strokeWidth=2;fillColor=#E52134;gradientColor=none;fontSize=12;fontColor=#4277BB;" parent="153" vertex="1">
          <mxGeometry x="528" y="24" width="60" height="60" as="geometry" />
        </mxCell>
        <mxCell id="197" style="edgeStyle=none;rounded=0;html=1;entryX=0;entryY=0.5;labelBackgroundColor=#ffffff;startArrow=none;startFill=0;startSize=4;endArrow=none;endFill=0;endSize=4;jettySize=auto;orthogonalLoop=1;strokeColor=#21A0DF;strokeWidth=2;fontSize=12;fontColor=#4277BB;" parent="63" source="195" target="196" edge="1">
          <mxGeometry relative="1" as="geometry" />
        </mxCell>
        <mxCell id="195" value="" style="shape=partialRectangle;whiteSpace=wrap;html=1;left=0;right=1;top=1;bottom=1;fillColor=none;routingCenterX=-0.5;shadow=0;labelBackgroundColor=#ffffff;strokeColor=#21A0DF;strokeWidth=2;fontSize=12;fontColor=#4277BB;align=center;" parent="63" vertex="1">
          <mxGeometry x="455" y="841" width="20" height="160" as="geometry" />
        </mxCell>
        <mxCell id="196" value="" style="shape=partialRectangle;whiteSpace=wrap;html=1;left=1;right=0;top=1;bottom=1;fillColor=none;routingCenterX=-0.5;shadow=0;labelBackgroundColor=#ffffff;strokeColor=#21A0DF;strokeWidth=2;fontSize=12;fontColor=#4277BB;align=center;" parent="63" vertex="1">
          <mxGeometry x="564" y="841" width="21" height="160" as="geometry" />
        </mxCell>
        <mxCell id="198" style="edgeStyle=elbowEdgeStyle;rounded=0;html=1;labelBackgroundColor=#ffffff;startArrow=none;startFill=0;startSize=4;endArrow=classic;endFill=1;endSize=4;jettySize=auto;orthogonalLoop=1;strokeColor=#21A0DF;strokeWidth=2;fontSize=12;fontColor=#4277BB;entryX=1.003;entryY=0.464;entryPerimeter=0;elbow=vertical;" parent="63" source="180" target="174" edge="1">
          <mxGeometry relative="1" as="geometry">
            <mxPoint x="775" y="1142" as="targetPoint" />
          </mxGeometry>
        </mxCell>
        <mxCell id="E9kqae5VklVFvgJIegH0-313" value="" style="shape=image;verticalLabelPosition=bottom;verticalAlign=top;imageAspect=0;aspect=fixed;image=data:image/png,iVBORw0KGgoAAAANSUhEUgAAANQAAABLCAYAAAAI7qmOAAAAGXRFWHRTb2Z0d2FyZQBBZG9iZSBJbWFnZVJlYWR5ccllPAAAAyJpVFh0WE1MOmNvbS5hZG9iZS54bXAAAAAAADw/eHBhY2tldCBiZWdpbj0i77u/IiBpZD0iVzVNME1wQ2VoaUh6cmVTek5UY3prYzlkIj8+IDx4OnhtcG1ldGEgeG1sbnM6eD0iYWRvYmU6bnM6bWV0YS8iIHg6eG1wdGs9IkFkb2JlIFhNUCBDb3JlIDUuMy1jMDExIDY2LjE0NTY2MSwgMjAxMi8wMi8wNi0xNDo1NjoyNyAgICAgICAgIj4gPHJkZjpSREYgeG1sbnM6cmRmPSJodHRwOi8vd3d3LnczLm9yZy8xOTk5LzAyLzIyLXJkZi1zeW50YXgtbnMjIj4gPHJkZjpEZXNjcmlwdGlvbiByZGY6YWJvdXQ9IiIgeG1sbnM6eG1wPSJodHRwOi8vbnMuYWRvYmUuY29tL3hhcC8xLjAvIiB4bWxuczp4bXBNTT0iaHR0cDovL25zLmFkb2JlLmNvbS94YXAvMS4wL21tLyIgeG1sbnM6c3RSZWY9Imh0dHA6Ly9ucy5hZG9iZS5jb20veGFwLzEuMC9zVHlwZS9SZXNvdXJjZVJlZiMiIHhtcDpDcmVhdG9yVG9vbD0iQWRvYmUgUGhvdG9zaG9wIENTNiAoV2luZG93cykiIHhtcE1NOkluc3RhbmNlSUQ9InhtcC5paWQ6MkNFMzY5ODk1QjgyMTFFOTgwNTRFQ0E1QjI4RDc5MkMiIHhtcE1NOkRvY3VtZW50SUQ9InhtcC5kaWQ6MkNFMzY5OEE1QjgyMTFFOTgwNTRFQ0E1QjI4RDc5MkMiPiA8eG1wTU06RGVyaXZlZEZyb20gc3RSZWY6aW5zdGFuY2VJRD0ieG1wLmlpZDoyQ0UzNjk4NzVCODIxMUU5ODA1NEVDQTVCMjhENzkyQyIgc3RSZWY6ZG9jdW1lbnRJRD0ieG1wLmRpZDoyQ0UzNjk4ODVCODIxMUU5ODA1NEVDQTVCMjhENzkyQyIvPiA8L3JkZjpEZXNjcmlwdGlvbj4gPC9yZGY6UkRGPiA8L3g6eG1wbWV0YT4gPD94cGFja2V0IGVuZD0iciI/PtCgX9QAAB/0SURBVHja7F0HfB3Fmf9m93U9VUuW5d4wNjYlBmKbjjEYONtAcDAcudBsSggcvxTuwLkLJIGEklASEkINJbkY7FCMcYDQ3bApphnj3i1bvb66O/f/ZvY9PcmSXCI5krWj32j37e7Mzs5+/6/NN7NCSklucpObOiYZbhe4yU0uoNzkJhdQbnLToZ48nVGpeHzV3i+SNuDsRQuC/IPIGyAq34xjaFJeMVEyiYrUhUXYORc7pyCPRh6AHNaFqA55C/LnyItIGAsoWldFdeVEfYYRJeJOgxy+IZ1/aov7m56mY3Fc60F7vF7djqxeRP4QTlnkNERfy78NQ+8LqevmfY+fqB73ravBMZRLRFG/SVTUW19v4XkMs60eQx1cCeoWGdeoYzgnhG4v3ysWw73QbhPtTOIeVrTp+ZqxShwLZRE9+xjRZ58Q5ecTRXcRTb+ORFWUjJf/TDK/UD8U169uZal9u6qW6NQzic6cSrR1ExnznsFz4VggoNojUl2pfkm0TJLkNvD7lNh6atE1goxEkGzUKfAcuozBT6H2eU8KG/vYQ1mZ6uMUYdq22ibNFiTKzfXgagttTUolEoTN97bwahLolxyyR/G7i+A8jvvRnxVRMtdUkfTq+6er+uzJ7gGoA4ShBpl0ulzQNdg5CzuTsc1qo1Aucn/kE5BxvawFYS+kcMGrZFtPH3A7+MVI22W3burOgJKagxvmGfjxK+Tj9r8KmUMe3wzyBWcAFAzIHyEv3cey/L8QbG4EpNPxqOcoHISYEwxmiAXaDaytxu8l2MeW1rnk46auCyhWkbKLnofKMV2pRweMS0gWS0mXE6AKMfE/oqVXu2kkVL3/IkNcBMkWgoSDhmW1LqVS6pWgj/D/buTnXDJyU1dzShwG6v0Q0mm6thc6dGzsauTlyEWtnBuI/ATyV7B3Lsc2tB8q37G4dg6a+h72L3JJyU2dKKH2ARBKxZIpol4M4izqRLvleORPHKdGjSNiYJ/RHLQhL0PlO5B0sspCHA2pNptsSFePcCnLlVAd7GDYWzbUll1aH7QhPTo69XPUNC/uPYMM4zWAKK/DareTt5LP/w55g7C4otpLmUy6FOZKqA5IvuA+CjEDYJJ9DuLzDoMkWYPt4A6vmdVEf/aplB9cRHW1JynVlV3XaZe4m1xAHWgyA+0IL7ZRLDb6bwStHdvB9tK+pMGdU63QEskQJ1Jh4XyKRKYSj6Ww59LeV0nlAs8FVGupbHc7qhHAFAoPp3DoAQWsQykJxxaz7CkA1DUA0h/Jn2Yuoxx7i+25w4ld9EQsyoE2WYayW8CJPsbv92lfXf1u6iGAErL9c4b86SHdq+z2z85+GECpAgM5AlL5HJiL32ynxHDkCeiYGY6UYrV0MfI85AUumfZ0QHG4TduIygbBTdehRYewN0zbTXP2s1BqZ4TKQlyB7Ts4fhu277rk2vVT53j5Uh6u1nIifhNsi8AhDaaOTadpUInnicfJXAdHTwRUvO0s5flutx9Qmk4cBGyaU1xm1NMAxRHjrWXhMWB8D3W7/YDVyKHk9c4HoC50JVVPAlQqarxZZo+eHIlb5rnd/k/bZnORz9dTUez2s+uKPwQARbL1LORo9wV3WB+/QMI4k0wf3mJrmeeaBbRm4Eqzg5Y6aWDX28pBFTFQ4gKqA5mW4Z1Hpr8Euw3U0qziAWUBQFmS6JAyuTo8eLo7qHyylazUj6ALhA7t6Gyo0m+TTAA4cSI7I/Ps20gtUUOdnpnc/Rh9P+S+e9Jo12bInQSoNrMbLdrx6XgwrLO1zZTBwFhCRRs1oLzerixn1RR5w7Yy80ApaDPyFq8dL0QmnWPktWLqetmWp9NWgQNEAVNPf+et10jhkOndr28suhGg2g4yr3DpvzPeoucRqH6etP0kAKCcAqJdpUTluygj/KmLq3LN6NLU2RZqPQ2yHWVvL0Dw4dnrwbd31hNVQVKXRYjq4r3IFA+h5EdqTjivd2F0zlQhz0HonEx+tNal/k7h8wMgoaaA2l5Mq9zMwTd8DbWvgSg3v5uskZG2jzIaq+PY+IyF/7ZaJKYNtY+fkaVRweFEHy8hSjQoSS0MeTKOfw/FosIyItITI9ubOBQklPgM/6Od8yS4QQR2Q03CEfuiY+uO42VVo+4KcL0GcECzi1n6Qlyp2sk5FCLavYNo1UqiYJaOLUwNXWThnA9SzLY778Wr1aCknlXQ0sMo2zKDZCYrbrVxltibBYWzUZDXgIFERcxE4vo9GeYGfV+x1fZGyfI3dJot5uk04m79pdeB2Leho4d3+Gg/CH5McYCKgyYtr4hRXczuGKLnOgDSUJaHzjsyTIfneumD8hgt3NqouWHXSVOduWWlFICZsHUDCV7SLLdALztmW8VkBI6WW3euorjYBrtqBF7BeXgpE1CG2fW7UgfiblZACAJ4vUugLtU5y4xJnvJ/KnZPAC1mYbsWWHkV1/+9SZaosUaDbHMirxAms0JvUCJqoj4G+8kiaX8o4taDIuBx4jjFYPw/Bzun4rcP9UGsiLmoY5sSSFrty/DrCWdlOcrBdhKqmIRjQ3EQei29BcJ7F7rcJorH8EQJXv8jjMZAXIlJDtBzpGmdJWwvRJ2X15h7u3sAqr6+dRWQuaTPv4S8vuEdroLUJemhs/vQKX0DdMIrO2npZhB8dgc8HvTxvjkA0Xl9qb9T3zs7IrTwy1qiXr6upjJ9B//uVWsMZmUTjT5O930oi0Rl2XHG6ugr9tIlP5YFBe9RVviD5ryO18UwHwJwrqBw+E+0aR0ZL/wFzKQ2V1jWVvL7stOavN6ejTI34MdKEPhEjqw39LwvCWJ9jdmq7JV9nlGdeJKSyQJeQ096zaE0OPwgMbPbWn+t8Jt/aNGGC7C5B7B5lPSai7mpc0kHSQDMKcKSDOSsNFNWWqHxXQH8yWT8f6mo5OdU3JfElk1nCp//bxkSsNhIhF5TDokmTbIbqHyq2sxMKY7Ee9ezPGlXhWb1KuosZChanOdxFX4hnDPHWHCbuoTmY0k7o6syyyTs1u/J56NOnTKjTq6uNkkPnlyowPTd98rpyDlb6dLFFUR53qZ64/aepiOrnbajVvBzJGXbz2HL5u2126m3/XSm+s/cuVcRidpqMj5cTMZnK0BcGyskJJewotcYu7d/QB7vY3hWSBs7F7rUaFuKn2kiE0+aodARng3rSMx/imj5y3GyE6ukx3cfTp4m7WSuZVvZuPIkUkG7dIwQ4t70+qHab7CS37fYXfqSjEX9MhC8XErvRFnou1T2y+bnmobrHDDJH6MdR6BUkRT2yfj9AA7OcsAUF447QoL3CzLGGyyJICGlLX8ibXGslJA6JEdgO4tMT9QQyZ8Zry+4gbZXgZEEl+HaGTifmi5UhntdiBo5dGtq91H5snJaEK2VWn7LC/H/Q6gfYg+Vj9VEBhFyVr6PAlC1KhotbbPk+zQuK7EPlS4326torJq9OWzPQA1TE2YdfV1m2nFs9/hNygMgakCgkm2ssKdJXavFb59BvXI8AKKkGr6eK8j3KqlHIZPOGxCkWpR9ZnG5dsPy/bitHoF6vdQIBMerEqptfL0CBAOI8RDTdaRXZ2UVshIqSdBDeWgHH6qpS+j2+A39jNjPy3Hq5faEHBewvVe9f5BetQk3DrOtBNWvsV6rbwIvgafkC2O4FPJVdNWsNDe1zVW2SP7UEFZ/Ib1X4h09S8HgWBkuIdtfHxExe7xQwgfP7Auoqf0i0rhYGObpEvXijpegrlmoU1lmzNuEUP64BNo81PZ4d4tcn9ZcVpQGRNR+gfsRIP4JiP3e9Fq5wl4kbWMRiGMtCv8upfIpQrV5pVnxrDpm0j34cQc1zU9labYWFXwhhblUrFn5IPlDL0MKb5ZW8jk872Ahxe38tvES/taZI92dA6iW6+oJXkbYHgLqeRMPNGQPMPHPmKW48gOnFdGNY3LTzqrHV9XSdUsrlNS585Qimjkqm4oCup83QHpc934Zvb6xoVkfGSlU7Y7R+ajroZMKqW+WLnP7h1V02/vlacAc1y9I884qpoFh3RVfgKBvXVFF81dW008mF9ONR+SQB2DP8Qmqu/lwuveLWrr9xe108jfy6PFTi+iwXD3G8zC3c1GFBjCANX9yH1CXpOfW1dNjeCZmEBMW7KRluP9FE3rRXciDHRVyd8SisS/toO0bGuik0Tn0KOodmafr/R1UyxveKdPP4zfasaWVeM+meISZlaR6oceh2AFhGplyLoaz01IaFL8K25NURaQUsyELrsSZb4B8j6ak71OBKg1lu9gQVHGShTDF/D4S69eSZKDyAqBEfVBPP1S31Vlr2dRDPeJWAHi3YBW0VwAkgHKGfTwkqIGbbYR9c0ez9tuGwxDlk7gjA8qTYpG2oBI0cRjAXGcX+G8mr0miDIwpyqtMGam5dSyRFlJu7jl4ZdOkbf/W1sAe5NzEmzH61Y0AlbnWtraVTkIHvkB62veeiS+ByvX8uX1o+pAsenZtPZWCMKcMz6KZILAffFIN2zhBtxyTpyTFgyDqbNziChD7a/9WQuNe3EHLv6ptqk5oVW3W+AJ6BMTM1d+3pIJOH5VDPz0un/oDPDNB3CP7B2n5Bf2oHqrgPSsqKT8Lx1HnpYeFaf7ySgInpSSrXZBgmwC+KkjDtwHeY4aH6b1pfTXBf1RNQ4v9dC3KHVvkp3HPbSMJgIwr9FERgDVtUEgBZiUk4xc7o3TFCb3oiTOLVdk/fV5DXlwzAO0pB5AnHp5Nb56n670fTGTMoCz6Pp5/MM5Pnb9DSzHRppePPXdhilSHsa0jH4imIA9ELFti8FObpZVTRvBa5GrtcUDJ9pTC8vkSx0dTIj4GF3xqGn7lHQSXP0zwqrz1tWNFo9mL/IGAQiFYk2Z+IpihLpuOqrZWOUQYiLuiSguBpBivOZ7xlzSJGKlluNMPV9zMdyfV2ucn6yUb5btKiqfUasNo4SekOezoAA8fzoy87fHb7uTls6JNXMfw5GkPDLU9XM/qEYiZwcTE9x//twXqgUU/BsEXgVgjSo2EDv3UZiJ+MazmATB3ADDrLh5A5w/NouWfVKWJrYylHSQHg2knru37+/VE21EuaND8a4fRVSOzaSa4/pnDsxUdXg+b6Jm52/Aa/TQLRBxkchgcop+/uZs2Q7V7CvX8CACb926Zsp22XDdM3WfUvO20+rMaJTn+fFF/+ncA7Zrj8+nht3bTBgCQAfX0mnq6jMEAYsvuHVBgYrobDltsw3pIVpacbCOHPLTwwn6KRsw/oL2r65RK+dsrB9P3IWUHlwRpE3PkkNn2GIwQISroF1YqUB8As3e/pg8mOO8DvL5RZixRwHhKryfPskGa641YcrQ9YmCA+0as2QIJ5nsAp29kcIhohAk5Ib3eKKOIUpEHRNYeXiiJihVYpVJS+OFQ51ANILkz7VGXsl0C1x8XoD7avqQqg9Vo6QyNQPpmrrgg2cupgVciWAE9yGskdp4NZTuxZCRW6GhZ2b4PA0DaCJtoCLjxollD6W5IpZe3NFIZq3P9QtpmgUr43QkFNGtkDoVQZmeDfodx2XzcqQrXFTkeuDWQDN/C9cVQo2qgAjY6zoE+BT56ZzPqPjaPnj69iEYBKE+AiNdtj1CEbaECr/ISzhgeVtd/Wattr5EA7wCcZ4m1GvURfrNbfTbay4CaXBygh/GSc3yac16zrCKtqo3voyMWfvVZNW3g54L0UgjCc49COZ9SYxN0weAs6jM2nxqq4tBsdD1no+zD6I82AZVmTpbj2LEcp80eBOVtImAn9kA049hZ5DHJ2FEBbMHOMT2zFZh4gVDbOkcanqWCOX+kUUl+MxDcgQpK2ohoN1NeCuEsqQbIxrR6B7WvsVFfxaqjcu2nnUbxVqRJTKkeJsRiKENziySbk5YQftUWry8iuc54w0GNtu8cQH29TE8b6DfyJvL4hu91rXKWCOj6aVDD7oHUORtS4qWSPlQKQrsfEuAuSIecHA/9Y1p/Oh6E1QCDajck2Kj+GjRRq3mHsU2e79WEdCI4+6lTm8fkxgCqwZB4y1bV0H8uKqdfj+9Ft8Am4jwfdsz3oG5tK4+TkeOliSUB9cLW1GhdfUBId9lqBljKBAfAamKaGLJN9eUQZTOpe/HLZIDWWVTk1+BYURbXzg077RejXIfu+wK0fzu3+VKFMTwfO1TIbHdglwmnkaJRPWbBn5+pqdKf1GmeEikwKb+NbapnSIX0ACzH8WdhZG6/z+36GjJse7ZAHTIWuxQNXir4sz0MjoHOPNGyUlONW4n2Hca2A1oh5VcGpJzdq+goecw43RSO6KgoI9PvT3VHQTOpaijV7WORRDsMY6zt8yhVVkl22FD8WVvpMFT8H2eAqdg5wY0yC8xwRx2/J8FMoq0B464PqJ1rwedy+1H/kfft0wAuXwJC/WJzI50DO2M8VL+ZsGOugl3yK9gcf11fT9NgXzCY/gdG/S/YSAeBDR0WpvUz+kMbNPagLUd40SOwra5/bRcV9guSiY5n4mQHR4IJPttLD75XRo/DZrsYkmYW7jcV2yGQVkdCvQwGDAWMj6Fq2fUJJWl2OcBhuyatv+NYVo7uykZbNuOYXjRGS1AWZLrsML6W1dLUMAHOR50yS6HSToQqWdjbr/DDReJoc4TryG1n3Etz4XoK+BpUu0z8rtjNBNjyyiBDiW0nHcQjlcPB6blLQKi50u9J2GZsBVkJnxCwjcAQZXHJx+qSXTtVbKDdqzcrBYVUvqtQq5tGu2JAD/qqveUsOQQAKstLv4/uiREAJh3gOwO4l6QklWDkAPRS+lYII0lGwjpCVtpjpUd8bEL1k14jc0iG/1/N3/kS1VWLqaaSZE6YpbaHIhyBr32PohNtqM4ZhzrpO0THX/BfStNLxPd+va3f/xGHZSu1atnKapoJu+eit/X6fhOgGg11JMMzbHewJw2Upmwl2lOrYXVrR42O1TqP1SoAoXxNHe2CmlUNcNSjfAzSbxhspqGH51ADjj3+aimNf3gDbYMqNwbqINtgQafP32fVjse4YO98viOiHCMjcb43ewq3RFQQ5g0j9VDB4sqEUrXMDHCrhDZ8XqXbdMtRuZTH6t+umA6VwmN85Rjap0Ci5kAyln+N9kJaVpZGqR7XWCyF9x75UavRwSoP+os5frMQI0VO4wwy70qRld1ECEMMdlU31JF95NhraeSRZFRXSoAzwh9FE1b8El4TxObgU44I/3BRtvhw8Wo0zFAfqtuL20w4f7jPSly/iSKRoLF9wwKxYyO4UERFxDuK6Gm47JZmJRlQMZy3xG3KLPeL+UaWmS0z7CPGHeQsf2mlEExiiRTiDZ624vR/uXNZX+rkL850TuUcQxWLfUvFju2LhAKB5sI2+PKCvsrV/DiIqRwEf/0xerb8QoBoE4jxpjE5tAkS6Y/YNkAqnDEopNUs5lKoo59jX7A6t2NtHc3+oJLuGFdA8nvDaCHAtBugOAOSqhZgHP3HDfSLSb3pYkjDFSDat7ZFaAAkEw/gciQEwZY6+pvKgUXrWL3jx8ALlNUWzXq/nOac0Zt2XTyAHv28hgbm+2hy/yBtAuHfv7RcMYWBjks8bZ5A7duC+9zxcTXNHptHVZcPpr8DMOxBHAqJddRft9KUV3bSK1NKqOayQfQWpPVmMIwTYVvxU42A1LLj7RjZLIkSia0p4qR4hQ4b2nPqBriUuBkig7+d9SKgsoHd5GjiGepsKPS8XLvhCTb2ZcCXkEL+0DTM34vKil+DvZ8ufb5VaMFYCmdPQp+XUlKWCZ8swoMW4nWvV+NuAc8g4VHjbuEUKGw15cLW3nQpTzM85loS6ltg5eST81F3HWhlsuDl0yTxeNNktLEIeO1FhlVGgXr2Gt4OePXFPa8WdclaPPM/SH8EYhBuwYPFbKRuhYJ4toTKL6D7GxX1bF9/CpXvU5w7GuS4Tg9IiwYnyKA7ePms00hNENtHDws6vwHE8vOPquhCEPisUZrbbwCB3vpZJdVELFoGgr9pSQVdh3PXjNbn2W6ZC3VwAYcZgagXAgQN4OSVTHj4fSdsIbY9eOzqnCH6I4gc47eSbZgCL90FSejBpecPCSl1ktNcEPlMHsBF0ycUap2+lNU8w5lFgHqfW12H4gb9AJJm1pF6zGwuQP+D5RUU43tDwvwVv4sBcCtlIyq11qSfLCmnKHROds2fPTQr/Zz9IRUXwF78Dq65YXQuTXSYRRz23ht4dnX79rQUlkSm+XcKh7WRX11JoqpCD+5m2iNSvg12fqcT3vOtjDe0SfK3tEzvL6ka5STsqICXvXN/ABT6k8d/OQ5OAeFP0e9YvgFONhUy7yrZaE0HWOKSbcT8EOH3XDspxwA5G9PRsDLTwSA2ox0nCin+W7VBiMvT9p2k3zCIAa5fotPHc2SgIMetz6CUdA3Mta/RITPRIZNQZpJTthr5MVx6Cy6tJ8dP5fEptZbdjd8GvB7CL44muYzUir0dDyghO8EDIp7e8iA67oZ9L+DoHtVxZfgHwN0DAFk1RyrENDiUjcCqHjhPIOxRRSKN2vNHsHXYHlLzYNiLFzT0mI3llAFBe1CGHW+NXMYBnHK/c8gRpEde2KR6SLBkjRPxwCCGNBwHCTHixR20dmdEue7Tba3R0Q0h1NvIhg7fmwmKbSumfL4PX+e4xRUdGUK3ryauJFMA9SVwrcUGH1/HtmC10vUJKg0F8bsh4jxjjmdfZn+XMP45jk+Ubifj0d/o6Gs9H+qb/HEGGCTLbLInGMpfTmEe9OTWIm9sUgOFHowHO1DXCVPbWlIerkeNaa2IJC05Oh/UjnZ9VYOq0W5mQGOKib6sgtyBOuu1HW+6aOYeVyqkLVKHc5wID0go2kTKwcBizHT4vcwIuInrQHav/naurEsWw3QrlvoTRZv1OBWkodB1sM1sOve0SEVmMCwHsfWMVmyxPnuitntIKJL79znPlAdXAQc0AIKPxpzIAFbjUqDn6AEQYNRxDKjzQcdaSegBWPI6rMnKKMORQJAKSZlRxna8b5xxbTUTNUsSBidsqiGw5xhMmwHqtRxZntNikN1pSyPbcXw/J7Ihfd9ARrtlRnyf0fw5VV1hT1MMX45ur432NiR0eBP5PfswFileUmBSbxX183hRJEKOfdNMf1DjTZqwoQ/JL/fHf9ucCUonCiZjgJ7bbO8Xk2ai/rxtwpDtjcvucvL+pM3dz4bSH1E7QPFGGhhtDWgz8fpE22Vbs9n4UHtTLZTbXnB0Ld0yrhdN6+2n8QO1ynXJW7sd6dJBbWnrOfenva2nJ9OfzmFnBKt8DdB8erX+6S0e3BWyaSzqwPjmQQtA6Dapsyb0ZHe7nnAiag+DasVgYsk0/fVdehpIvrdrE4owdqDp8/WHGEiFCon1X1Pb43+OaqekS+fFtfXE1FkSqvu9IW4xwHTlu+V05ZIKbWcp+83bxRvN+mz8MpK2rSQiB8OWbiOxYQ2pgc2M8SdnO6S5/mdrZ7abujSg6rqllCJHDUs6axOwfdWlVRjVuMVAxD/S7czKItq4jmTZLj39van92wwh5+Dn6uaqqHZn6yBZFxBd1SmxjXi8oDuqfZn2S9cnsEYyzInE4UCpxoby1DQIO55UMRGpw9hbjx8X76k7iBYP76auZ0NJ8ZHbtZ2t6qlI/rPI8MbTDpBUdtMh55R4we3azgQTT/+PTycrupiSEaJERm6sgZTyq3Uk3K/QHyoqn6A3SI+J9HG7uKNZoMFhXd8mKzJPRZK3HJivBYhyAKbcXKKKii69aqwrofZPJXnF7d4OT7y81omkPmcj9JSJlpnXMef5K5blqn+Hjg2l8n2u26hD09NAyDewXeJ2RU8DlDaSV+Hf7W4X/9OJHTynkw7oLHe7oyfaUFnpCZe3wYC+miK1JWQl9jqrs+cmqVcJsFNfHaSdyPOQeRrDB27/9HRAbV7p0IlaOOQ0yu/7NXkDHPHZc3tau7TfBGggudWqPmGn/20wmkYwnWry+EvJMD4Avl7DtTGXPF1A6bT4z3rLHwET5hqadO1Z1Lvgdb1oSw9Ntr2LpJhEmQvipQZTWXLX8cTEQiK/+00614ZqmfwhJ2fprTDegLQaR7wUbk9MXl41tfZc2rlNS22jlW43PK5XzgVUW+pNS3euOroceTTy8z2ulxOJGeQLfEx5eZSeYuEmF1AdkFhCXQSCOp94sY6eYTtNJyv5nJr0F852Kc4FVKcknl3KYyo8s3c28lLiQE8h9Ldhlc3BC9OHSimYY3ePr+/tkXi86Ghib51wlhp2Q4Fcp0Qnp4/Awj+CFnQniK6A4pHBFG3Ip2A+f+WhnMo3rqJ49Cbqc9jdvITVvyA1OpL0hP0ow+vXzSVJv9QSyiUyF1D/Gt2okiyrkuKgYQYUc/VIPVFd1aNUNPhuJbls62Cra38h/u6QXmLrYmc7oEW/sdjZQfpbSc+R/gqgm1xAdQl7o8nbxQPBbLzH6qqpruLXVND/hwpsBytJmSDLvlmtG8HjR1K+qQemZQnZdi4A7qVkIkmGUUOmuVOvceVKJBdQXTFJ54PHxUN1FuJHANNVOJN38MBNN5Owq7SZ2QwlO52sIxsMN/rDTf96p8Q+UTQZXh2So0OWph7Emy/Afe8nX1AvydWeRHWTm7oFoNhmMp2F4NW+dxH2LzsIEexrcD+9OqqkjFmw7tiRm7q1hGo1PQ3Cvp4CYW1rdfwA6QriFVZF5joLbnLTIQsoFff2eyrbPA02VbSVbx/9M+lFBSbJy/q6QHJTTwCUUr8Aoq/emU81ZcPJG3iqA2qtIuUSlxe45OCmnqby6cSOAkNsh8p3ORA2HXku7ffX6eSXEER3AKQj8GOOSwpu6hDS7JatFs1c2fMADs6DNLhoMqlP6ajPSoacC/lLZ7XYLQPuvsD2RYDpZW2DGa6t5KaOI03pRj67yU09XOVzk5tcQLnJTS6g3OQmN+1H+n8BBgATZuyoDKfqoQAAAABJRU5ErkJggg==;shadow=0;strokeColor=#21A0DF;strokeWidth=1;" vertex="1" parent="63">
          <mxGeometry x="287" y="150" width="212" height="75" as="geometry" />
        </mxCell>
        <mxCell id="125" value="" style="swimlane;shadow=0;labelBackgroundColor=#007FFF;strokeColor=#21A0DF;fillColor=none;gradientColor=none;fontColor=#000000;align=right;collapsible=0;startSize=0;strokeWidth=1;" parent="63" vertex="1">
          <mxGeometry x="226" y="281" width="334" height="259" as="geometry" />
        </mxCell>
        <mxCell id="192" style="rounded=0;html=1;labelBackgroundColor=#ffffff;startArrow=none;startFill=0;startSize=4;endSize=4;jettySize=auto;orthogonalLoop=1;strokeColor=#21A0DF;strokeWidth=2;fontSize=12;fontColor=#4277BB;endArrow=none;endFill=0;exitX=1;exitY=0.5;exitDx=0;exitDy=0;" parent="125" source="E9kqae5VklVFvgJIegH0-322" edge="1">
          <mxGeometry relative="1" as="geometry">
            <mxPoint x="73.33931703484541" y="102.13977981065136" as="sourcePoint" />
            <mxPoint x="154.2041373177285" y="59.88847797414019" as="targetPoint" />
          </mxGeometry>
        </mxCell>
        <mxCell id="193" style="edgeStyle=none;rounded=0;html=1;labelBackgroundColor=#ffffff;startArrow=none;startFill=0;startSize=4;endArrow=none;endFill=0;endSize=4;jettySize=auto;orthogonalLoop=1;strokeColor=#21A0DF;strokeWidth=2;fontSize=12;fontColor=#4277BB;entryX=0;entryY=0.25;entryDx=0;entryDy=0;" parent="125" source="E9kqae5VklVFvgJIegH0-322" target="E9kqae5VklVFvgJIegH0-323" edge="1">
          <mxGeometry relative="1" as="geometry">
            <mxPoint x="73.49262237864787" y="115.55355944105759" as="sourcePoint" />
            <mxPoint x="164" y="149" as="targetPoint" />
          </mxGeometry>
        </mxCell>
        <mxCell id="194" style="edgeStyle=none;rounded=0;html=1;labelBackgroundColor=#ffffff;startArrow=none;startFill=0;startSize=4;endArrow=none;endFill=0;endSize=4;jettySize=auto;orthogonalLoop=1;strokeColor=#21A0DF;strokeWidth=2;fontSize=12;fontColor=#4277BB;" parent="125" edge="1">
          <mxGeometry relative="1" as="geometry">
            <mxPoint x="168" y="159" as="sourcePoint" />
            <mxPoint x="168" y="69" as="targetPoint" />
          </mxGeometry>
        </mxCell>
        <mxCell id="E9kqae5VklVFvgJIegH0-322" value="" style="shape=image;html=1;verticalAlign=top;verticalLabelPosition=bottom;labelBackgroundColor=#ffffff;imageAspect=0;aspect=fixed;image=https://cdn2.iconfinder.com/data/icons/seo-flat-6/128/39_Email_Marketing-128.png;shadow=0;strokeColor=#21A0DF;strokeWidth=1;fillColor=#ffffff;fontFamily=Salesforce Sans;fontColor=#21A0DF;" vertex="1" parent="125">
          <mxGeometry x="14" y="79" width="44" height="44" as="geometry" />
        </mxCell>
        <mxCell id="E9kqae5VklVFvgJIegH0-323" value="" style="shape=image;html=1;verticalAlign=top;verticalLabelPosition=bottom;labelBackgroundColor=#ffffff;imageAspect=0;aspect=fixed;image=https://cdn2.iconfinder.com/data/icons/seo-flat-6/128/29_Viral_Marketing-128.png;shadow=0;strokeColor=#21A0DF;strokeWidth=1;fillColor=#ffffff;fontFamily=Salesforce Sans;fontColor=#21A0DF;" vertex="1" parent="125">
          <mxGeometry x="141.5" y="139" width="53" height="53" as="geometry" />
        </mxCell>
        <mxCell id="E9kqae5VklVFvgJIegH0-324" value="" style="shape=image;html=1;verticalAlign=top;verticalLabelPosition=bottom;labelBackgroundColor=#ffffff;imageAspect=0;aspect=fixed;image=https://cdn2.iconfinder.com/data/icons/facebook-ads-1/204/2-128.png;shadow=0;strokeColor=#21A0DF;strokeWidth=1;fillColor=#ffffff;fontFamily=Salesforce Sans;fontColor=#21A0DF;" vertex="1" parent="125">
          <mxGeometry x="156.5" y="28" width="38" height="38" as="geometry" />
        </mxCell>
        <mxCell id="126" value="" style="swimlane;shadow=0;labelBackgroundColor=#007FFF;strokeColor=#21A0DF;fillColor=none;gradientColor=none;fontColor=#000000;align=right;collapsible=0;startSize=0;strokeWidth=1;" parent="63" vertex="1">
          <mxGeometry x="575" y="281" width="236" height="240" as="geometry" />
        </mxCell>
        <mxCell id="122" value="APP&lt;div&gt;SERVER&lt;/div&gt;" style="aspect=fixed;perimeter=ellipsePerimeter;html=1;align=center;shadow=0;dashed=0;image;image=img/lib/ibm/applications/app_server.svg;labelBackgroundColor=none;strokeColor=#4277BB;strokeWidth=2;fillColor=#E52134;gradientColor=none;fontSize=12;fontColor=#4277BB;verticalAlign=top;" parent="126" vertex="1">
          <mxGeometry x="39" y="37" width="60" height="60" as="geometry" />
        </mxCell>
        <mxCell id="121" value="BLOCKCHAIN" style="aspect=fixed;perimeter=ellipsePerimeter;html=1;align=center;shadow=0;dashed=0;image;image=img/lib/ibm/blockchain/blockchain.svg;labelBackgroundColor=none;strokeColor=#4277BB;strokeWidth=2;fillColor=#E52134;gradientColor=none;fontSize=12;fontColor=#4277BB;verticalAlign=top;" parent="126" vertex="1">
          <mxGeometry x="148" y="37" width="60" height="60" as="geometry" />
        </mxCell>
        <mxCell id="E9kqae5VklVFvgJIegH0-339" value="" style="edgeStyle=orthogonalEdgeStyle;rounded=0;orthogonalLoop=1;jettySize=auto;html=1;strokeColor=#21A0DF;fontFamily=Salesforce Sans;fontColor=#21A0DF;" edge="1" parent="126" source="131" target="E9kqae5VklVFvgJIegH0-338">
          <mxGeometry relative="1" as="geometry" />
        </mxCell>
        <mxCell id="131" value="TRANSFORMATION&lt;div&gt;&amp;amp; CONNECTIVITY&lt;/div&gt;" style="aspect=fixed;perimeter=ellipsePerimeter;html=1;align=center;shadow=0;dashed=0;image;image=img/lib/ibm/infrastructure/transformation_connectivity.svg;labelBackgroundColor=none;strokeColor=#4277BB;strokeWidth=2;fillColor=#E52134;gradientColor=none;fontSize=12;fontColor=#4277BB;verticalAlign=top;" parent="126" vertex="1">
          <mxGeometry x="39" y="138" width="60" height="60" as="geometry" />
        </mxCell>
        <mxCell id="E9kqae5VklVFvgJIegH0-338" value="TRANSFORMATION&lt;div&gt;&amp;amp; CONNECTIVITY&lt;/div&gt;" style="aspect=fixed;perimeter=ellipsePerimeter;html=1;align=center;shadow=0;dashed=0;image;image=img/lib/ibm/infrastructure/transformation_connectivity.svg;labelBackgroundColor=none;strokeColor=#4277BB;strokeWidth=2;fillColor=#E52134;gradientColor=none;fontSize=12;fontColor=#4277BB;verticalAlign=top;" vertex="1" parent="126">
          <mxGeometry x="39" y="278" width="60" height="60" as="geometry" />
        </mxCell>
        <mxCell id="E9kqae5VklVFvgJIegH0-341" value="" style="edgeStyle=orthogonalEdgeStyle;rounded=0;orthogonalLoop=1;jettySize=auto;html=1;strokeColor=#21A0DF;fontFamily=Salesforce Sans;fontColor=#21A0DF;" edge="1" parent="126" source="132">
          <mxGeometry relative="1" as="geometry">
            <mxPoint x="178" y="278" as="targetPoint" />
          </mxGeometry>
        </mxCell>
        <mxCell id="132" value="OTHER&lt;div&gt;WORKLOADS&lt;/div&gt;" style="aspect=fixed;perimeter=ellipsePerimeter;html=1;align=center;shadow=0;dashed=0;image;image=img/lib/ibm/data/data_services.svg;labelBackgroundColor=none;strokeColor=#4277BB;strokeWidth=2;fillColor=#E52134;gradientColor=none;fontSize=12;fontColor=#4277BB;verticalAlign=top;" parent="126" vertex="1">
          <mxGeometry x="148" y="138" width="60" height="60" as="geometry" />
        </mxCell>
        <mxCell id="141" value="CONTAINERIZED MIDDLEWARE" style="text;html=1;align=left;verticalAlign=middle;fontColor=#4277BB;shadow=0;dashed=0;strokeColor=none;fillColor=none;labelBackgroundColor=none;fontStyle=1;fontSize=12;spacingLeft=5;" parent="126" vertex="1">
          <mxGeometry x="5" y="8" width="195" height="20" as="geometry" />
        </mxCell>
        <mxCell id="130" value="" style="swimlane;shadow=0;labelBackgroundColor=#007FFF;strokeColor=#21A0DF;fillColor=none;gradientColor=none;fontColor=#000000;align=right;collapsible=0;startSize=0;strokeWidth=1;" parent="63" vertex="1">
          <mxGeometry x="860" y="350" width="159" height="240" as="geometry" />
        </mxCell>
        <mxCell id="133" value="CACHES" style="aspect=fixed;perimeter=ellipsePerimeter;html=1;align=center;shadow=0;dashed=0;image;image=img/lib/ibm/data/caches.svg;labelBackgroundColor=none;strokeColor=#4277BB;strokeWidth=2;fillColor=#E52134;gradientColor=none;fontSize=12;fontColor=#4277BB;" parent="130" vertex="1">
          <mxGeometry x="9" y="37" width="60" height="60" as="geometry" />
        </mxCell>
        <mxCell id="135" value="ANALYTICS" style="aspect=fixed;perimeter=ellipsePerimeter;html=1;align=center;shadow=0;dashed=0;image;image=img/lib/ibm/analytics/analytics.svg;labelBackgroundColor=none;strokeColor=#4277BB;strokeWidth=2;fillColor=#E52134;gradientColor=none;fontSize=12;fontColor=#4277BB;" parent="130" vertex="1">
          <mxGeometry x="47" y="138" width="60" height="60" as="geometry" />
        </mxCell>
        <mxCell id="142" value="DATA WORKLOADS" style="text;html=1;align=left;verticalAlign=middle;fontColor=#4277BB;shadow=0;dashed=0;strokeColor=none;fillColor=none;labelBackgroundColor=none;fontStyle=1;fontSize=12;spacingLeft=5;" parent="130" vertex="1">
          <mxGeometry x="7" y="8" width="150" height="20" as="geometry" />
        </mxCell>
        <mxCell id="187" style="edgeStyle=orthogonalEdgeStyle;rounded=0;html=1;exitX=0.75;exitY=0;entryX=0.75;entryY=0;labelBackgroundColor=#ffffff;startArrow=classic;startFill=1;startSize=4;endSize=4;jettySize=auto;orthogonalLoop=1;strokeColor=#EDC11C;strokeWidth=2;fontSize=12;fontColor=#4277BB;" parent="130" source="142" target="142" edge="1">
          <mxGeometry relative="1" as="geometry" />
        </mxCell>
        <mxCell id="136" value="" style="swimlane;shadow=0;labelBackgroundColor=#007FFF;strokeColor=#21A0DF;fillColor=none;gradientColor=none;fontColor=#000000;align=right;collapsible=0;startSize=0;strokeWidth=1;" parent="63" vertex="1">
          <mxGeometry x="1070" y="370" width="199" height="240" as="geometry" />
        </mxCell>
        <mxCell id="137" value="AUTOMATION&lt;div&gt;TOOLS&lt;/div&gt;" style="aspect=fixed;perimeter=ellipsePerimeter;html=1;align=center;shadow=0;dashed=0;image;image=img/lib/ibm/applications/automation_tools.svg;labelBackgroundColor=none;strokeColor=#4277BB;strokeWidth=2;fillColor=#E52134;gradientColor=none;fontSize=12;fontColor=#4277BB;" parent="136" vertex="1">
          <mxGeometry x="27" y="37" width="60" height="60" as="geometry" />
        </mxCell>
        <mxCell id="143" value="DEVOPS &amp;amp; TOOLS" style="text;html=1;align=left;verticalAlign=middle;fontColor=#4277BB;shadow=0;dashed=0;strokeColor=none;fillColor=none;labelBackgroundColor=none;fontStyle=1;fontSize=12;spacingLeft=5;" parent="136" vertex="1">
          <mxGeometry x="7" y="8" width="150" height="20" as="geometry" />
        </mxCell>
        <mxCell id="E9kqae5VklVFvgJIegH0-314" value="" style="shape=image;verticalLabelPosition=bottom;verticalAlign=top;imageAspect=0;aspect=fixed;image=data:image/png,iVBORw0KGgoAAAANSUhEUgAAAGMAAABaCAYAAACsTujwAAAACXBIWXMAAAsTAAALEwEAmpwYAAAF6WlUWHRYTUw6Y29tLmFkb2JlLnhtcAAAAAAAPD94cGFja2V0IGJlZ2luPSLvu78iIGlkPSJXNU0wTXBDZWhpSHpyZVN6TlRjemtjOWQiPz4gPHg6eG1wbWV0YSB4bWxuczp4PSJhZG9iZTpuczptZXRhLyIgeDp4bXB0az0iQWRvYmUgWE1QIENvcmUgNS42LWMxNDggNzkuMTY0MDM2LCAyMDE5LzA4LzEzLTAxOjA2OjU3ICAgICAgICAiPiA8cmRmOlJERiB4bWxuczpyZGY9Imh0dHA6Ly93d3cudzMub3JnLzE5OTkvMDIvMjItcmRmLXN5bnRheC1ucyMiPiA8cmRmOkRlc2NyaXB0aW9uIHJkZjphYm91dD0iIiB4bWxuczp4bXA9Imh0dHA6Ly9ucy5hZG9iZS5jb20veGFwLzEuMC8iIHhtbG5zOmRjPSJodHRwOi8vcHVybC5vcmcvZGMvZWxlbWVudHMvMS4xLyIgeG1sbnM6cGhvdG9zaG9wPSJodHRwOi8vbnMuYWRvYmUuY29tL3Bob3Rvc2hvcC8xLjAvIiB4bWxuczp4bXBNTT0iaHR0cDovL25zLmFkb2JlLmNvbS94YXAvMS4wL21tLyIgeG1sbnM6c3RFdnQ9Imh0dHA6Ly9ucy5hZG9iZS5jb20veGFwLzEuMC9zVHlwZS9SZXNvdXJjZUV2ZW50IyIgeG1wOkNyZWF0b3JUb29sPSJBZG9iZSBQaG90b3Nob3AgMjEuMCAoTWFjaW50b3NoKSIgeG1wOkNyZWF0ZURhdGU9IjIwMTktMTAtMzBUMDg6NTA6MDgtMDU6MDAiIHhtcDpNb2RpZnlEYXRlPSIyMDE5LTExLTE0VDEzOjU0OjA5LTA2OjAwIiB4bXA6TWV0YWRhdGFEYXRlPSIyMDE5LTExLTE0VDEzOjU0OjA5LTA2OjAwIiBkYzpmb3JtYXQ9ImltYWdlL3BuZyIgcGhvdG9zaG9wOkNvbG9yTW9kZT0iMyIgcGhvdG9zaG9wOklDQ1Byb2ZpbGU9InNSR0IgSUVDNjE5NjYtMi4xIiB4bXBNTTpJbnN0YW5jZUlEPSJ4bXAuaWlkOmRmY2Y1Nzg5LWJjNWUtNGVkZi04MjgxLWQ5MzAyMzY1NmE4OSIgeG1wTU06RG9jdW1lbnRJRD0ieG1wLmRpZDpmOWQ5NzRlOC1mODY0LTQwYTEtOGIwYy1kODMxZDhkNzJlYWUiIHhtcE1NOk9yaWdpbmFsRG9jdW1lbnRJRD0ieG1wLmRpZDpmOWQ5NzRlOC1mODY0LTQwYTEtOGIwYy1kODMxZDhkNzJlYWUiPiA8eG1wTU06SGlzdG9yeT4gPHJkZjpTZXE+IDxyZGY6bGkgc3RFdnQ6YWN0aW9uPSJjcmVhdGVkIiBzdEV2dDppbnN0YW5jZUlEPSJ4bXAuaWlkOmY5ZDk3NGU4LWY4NjQtNDBhMS04YjBjLWQ4MzFkOGQ3MmVhZSIgc3RFdnQ6d2hlbj0iMjAxOS0xMC0zMFQwODo1MDowOC0wNTowMCIgc3RFdnQ6c29mdHdhcmVBZ2VudD0iQWRvYmUgUGhvdG9zaG9wIDIxLjAgKE1hY2ludG9zaCkiLz4gPHJkZjpsaSBzdEV2dDphY3Rpb249InNhdmVkIiBzdEV2dDppbnN0YW5jZUlEPSJ4bXAuaWlkOmRmY2Y1Nzg5LWJjNWUtNGVkZi04MjgxLWQ5MzAyMzY1NmE4OSIgc3RFdnQ6d2hlbj0iMjAxOS0xMS0xNFQxMzo1NDowOS0wNjowMCIgc3RFdnQ6c29mdHdhcmVBZ2VudD0iQWRvYmUgUGhvdG9zaG9wIDIxLjAgKE1hY2ludG9zaCkiIHN0RXZ0OmNoYW5nZWQ9Ii8iLz4gPC9yZGY6U2VxPiA8L3htcE1NOkhpc3Rvcnk+IDwvcmRmOkRlc2NyaXB0aW9uPiA8L3JkZjpSREY+IDwveDp4bXBtZXRhPiA8P3hwYWNrZXQgZW5kPSJyIj8+JfVK3AAAFtFJREFUeJztfGuMZMd13ndO1b23+3b3vGdnd5azL4r7ILkrYklLlORIoigYdhIrsYNIjqLECW1HTiw7ESwksAHHEGw5sCUrcBC/mDh0RCB+IIBtQJEMBTaUxI5IURRFUqTMN7nLfc3uzkxPv+6j6pz8uNMzPbPTu7M7MztNZz+ggJm+3ffWra/qPOqcU6SquIXBAO90B25hBbfIGCDcImOAcIuMAcItMgYItt+Fb//AXVf9ITHgMmCx7mECAApQYOBTB1utQSUDpR2UyiGyDPBO4FXAxAAISgCD4H0GZgNRIAwNJPdwMAEbHjNptleqlb2u1ZwOrR13qpGIGmPIEyP1Ti+T6pkwLL/poWfV5fNEmntVQBRcDqFOwF5hAosk7SCwjKgyhGajDUMKhQNAKE9OoTM7Cw4jWBDyPIPkOUxcQiVMQeIB0DUH9PgXX74+BnrQl4ydgAoOAnQvVO6C0mHPuF3TZBcRVZ1IrIAlAomoQOABtBTUyH12UYGXCHgR0G8DeBLAaWKCggC8Ncz3HSODABCRBfAuBR4k4AO58+8EKAQU3uUAE8g5gBmClXnZdY2IUAFhl/f+dgD3d29MoDYRfd3n/s8h+AqIvk5EA8/ITpGxT6E/6sX/XRAfV0UxeXvGi5iLUedCrfUKCFojLWjNBwqNofR+Td37QfRpMD1Fzv93AL9DoNni+4PHzU0jY2m47lTgU1D5qIhGQM9AUs+3gOXpT0wgEBR6xfgREVQVa3cRqFgexXUoedGTInpSlX9GFV8Q1X9PRK8Ash2vesPYXjII4GJc9ovSz0DxkEIDxZWzeS1UFSICn3mo6BWDTkQgIjAz2DCYed17Emh5JRFRLff6E/li458y0W8S06+oYnYrX3kz2FYyCECW4ZNJ5j4NUK07WL1DxsxQAC7P4Z2Dd6IKFWuthFEopXJJbBBQEFhl5mjpziTeJXnuyDknWZqZPMtM7jwxERtjyFgDGwQgACIrK4CYId7HAvppgH9YRT7F1v7XQixu52hcG9tAhoKYQeDDeeofSdm/m6iPnCcgTVK4PBdm9qW47EbGRnxteIjLcZmjKGIbWjbGWGZW9PhFqhqqqjjn4PIcWZq5dqsjiwuLWp9b4E6nY7Mks0EUUBAGgBarDapgY4BipU2ox++KwYfV+YeI6UKhu7Z+VDaCLSeD2MC3Wz8iqv9BycaF/l3RC4RCziedBN55V6lV8umZPX5iapKqtVporA1BarwXiBOIeGQuW+9RBoBhw0EYRYgrFYyNj6vOqPfe+cV6I794fjadu3iZW4utyATWRFG4rGeW+2sDqNe/2Z6dfZaM+TFi/pOdUiVbQ8bybFKA8Gs+S38KZEDWrChiKhRxp9NB7pwbHx/Ndt82LRNTkzYqhbF3np1zyDsdiJcV/q6hW8QJPDzyNAcAYsPWWmtHx0YxPjkuSSdJL16Y7Zw7dZYX5uthGIW2VC716CAFEaBeJgX4Y/LuZ8nYf7cl43Kd2BoyCkvRitM/Ui9/m8zSbXssIp97tFttGRqqJccOH5TJ3btCNiZMkwStZhsQhUIL0vg65AStWE/FIxVZliHPcoCJrTXlmQMz2LN3Oj1/9nzy+suv8WJ9sRxXYjLGLK8SWhJdLkl+iYJwL4BP3GxxtVViakIFf6CQD/Qqh+6sbjVaYObkjjsP5/sO7QuNMeV2q03eeTDzkge4NKhbgOXVpAqXO2RpBmuDaObgTLh7eip59cVXm6defSNkNlFcjZdXCRGBjIHz7ieIaBTAPwbgt6RTG8CNk7HsBVNVoX+shPf0aj7iQjY3FhoyMjbcPnbiLhoZG6l0Ogm3Wx0wAWxuzj4lM8N7h8ZCg8JSWD564pif3D3Zee5bz/nGYqNcrVWpV5cUZNJHVWGI6Ie2apJcs5/9LnQtoH6tUMwK5+T3ofSe1b8luMxhcb7u9h2cad7/3ncH1aFapb5QZ5fnYF7HvNpmdMVfnuVYXFg0I+Oj1Xc98B6anJps1ufrXkTW6CcFiD6SJ/lvQ6Xo7kbaJtB3ZTTr/U0KJkXmPMDm82zxt3oNdDaMLMvQbrazYyfu6hw8dnvcrjeDLMtgjNlcb7cIRIRGvYFyXC6ffNd92V8983zrlRdfiWtDNWutXfZLyFhInv+zxaa8GJjSrxpViBS7vNuBvmT4vL8HpKTwXn9cGJ8MAobKyvLO0gydVid7+3e9Pdl7cF+1tdAwzrmBIaILYwySTgIRCY/ec7cx1rZfeu6FUnW4FiwrdhWYwCJz7nOGzPMs+mXn/TUtvBtFfzHF/ZuA3sE2+DVraYUIZnjn0Gm10xP3nsj2HtxXXZxbMN4vKekBBDMjz3I05xfMHXcdiY8cP5I0F5u5ii4PuKrCGoZD9rCH28dMVxXfm+pPvwuezLqNLKyyfl6BsNeHUBG0mq386Ik707237y835he4e22QQUQQUbQaDXP7nUfLBw8f6jQWF1dZUASGiN6Wk/8VBAwlhvL6bTPo+2tdtxG88M+J4j294QEF0Kgvyr5D+5ODRw7FzYVFozr4RHRBTPDOo91o2GMnjpV27ZlqL9YbSsuDq2AiCNFHRPEQVCFe1m2bQV+dUQ5WXyIieHFvT3L/Se4ZZGZGs9HE6PhY++jxO8P2YsuKc6ABFU39QETI0xwJJ+HdJ4/7r//vxzpJuxOX4/KKQhcgc9nPjd82+eV4qHLOu611QfqOGJNf0wSi8ilAa8svwIQ8z2GN6dz59jtJVaI8zzdGBDNgzM1rG+gTG0aapAiDsHzsxJ3inUt9j8JmIojggLj843nSQta5sm0GfVeGaLr8NxHgPb03c/SxIqGggCrQbrX9sePH3NDocGVxYfHaytoG0HYDOndRC4vgJsiyJW+OxncRRWXAu75fZWY0m01M7Jks7zu0v/Pay6+FQ8ND3Z03BKUA9dn6v3Jp41FAXllr5l49jePq6C+m4j09HTRoNOd+UnwTJgiXtw7arTZGRkfSmQP7ok6rfe2pZyx0YQ7weRZ93w8lPDld1iyzK1HtbQARkQ1z/+YrSfYXf1pG7AKqVAHpL2JUFWk7NQcPH7IXzl3oJJ0k7m4uEgFeMRwNT348DKN/3bUmtwJ9yQiFuu+CPMvu7WTJ9xljl7cMVAQqPj94+KCCEWZZfu1VkbQBl2Xxv/j5jr3nuytXe/4WIwAAc+Bou/3or1ZMqWSvZocSEZIkwdDIUHTgjoOt73zreV8qlwwAqCjYMCR3HxZjPwdsXaSwvzXVbkBbi6BOC53O4sdEfaWrC5gZnSTF2ORENrFrImg329eWNsZC5i8huP/BzN7z3TFWE7HRzYbNtDB84EOl4Pg7E7l8AbBXnwdLK592T+8OhkaHszRJlydbsY/l9+dp+wd91oFL28ttM+hLRrMaozlUxWIpGG377HsteFmaqCpUxE3PTIOIwyv3ddZ7OwbEC0/uUexcVooxU7cJ0gTX2tIgIrjcIQzDYHpm2md55lclPhADyj9gOIK1Mawtw9rypjrXl4xwZj9KB98Gnph8r+TZ0S4RzIXFUa1Vs4mpSZum6cY8bPGgKGL/nacYQLKpXt8gtNPK3PPftDQ0Aui1fQIiQpqmPDU9ZUulUpal2arteS/+e2wUnYziCsJyjLAcb6p/fWdo/VuPAQoI84MclZZXhYjAOSeTUxNiA1tKk7TfLVZDPGhsCvlzT5Q7X/hco/yxnwaYQhTxgu22qAh5mrb/82e8P/1SjacPAj6/5mOL1ZEjrlbs5NRkcubUmxqEAXWvETHazfn3Q+WbW/EKfcmITQ4BxR0NH1BdeZR3HoaNm9y9i33uuGtZbQhE4Mm9nP35n1Tdc0/mZtdMBvV+I7P0hlGYz8adfd3o3GyZp2YIG8ybBQBfeNZ2cvcuc+bUGa+qdnnfihSs/CAWmp/fitSSvmTkpgIFjsLLXdTzIOdyVGpVX65WbO762+vrQgQwFrxnv9GFSya/8OaSM7adC0MBEVBlCLxnf+FjXIcl3dUd1WqVK5XYZXlugyAo7uwcYIP7ht/3wBSYL2zWQu9PhuQA6KSSpS4ZRATvRUfGRtUYY9JOcv0+mwrgBTQ8ARqZ2Ezfr/O5Crj8un9WmPY5SnHZDI0M5+fPnkcYrvhaojKZL9TvNcZ8abP1kX3JMFE4JrkcJ78io5Y6ILWhKkNhrktErYVc56raQYgKiMlUhqq5nlHBkuFDxkBFKXnh2bszn35p2yJ9sLRLPb1NnS77RyoCG1gfxSWIbF+QZdCwFCKgclyGMUZUtTAfdSkmUi3f7oQ2rTX6kpE10kPM5mDh6BUrwHlBFEYShRG88/2zObYi0rITWMo4XItCPHuUy2XYMPDee2utXckqUbytxOVNv3JfMkql6v48T0aXHToCvPcIooCCKGDv/JV61xggzyCXLyhEdMkBGbzc+ytBEC8wlnhiD4G5MDZ6oKIIo8AE1mqSJLA9HjwBY8ZQRIQN2vnroy8ZqrpLlarLY7mUqxoElg2zcbpG5jND8wx66bwL3vFgy959n4X40qqs48EEwRgCqO2e+Kpmzz5WMbv3mcLDXum6Fjm6xlrr164eIhpymT8MxVkAl2+0I33JSJN2hdmERCuTW6FgY1MQXen3K6CXLkj0oR9ul37wRyMApaUrb4UoEwGohu/7/oT+yy+3sr/4co13Ta9SAgoFMzu2nKki7P0cSjVjwrsBVAF87UY70XegrLElECxW9wjGsIJIV5lxbKALl2Cm92XR937EYoWI7osOeuv2sxx9/z8KqDbstLFQOIw9705EbNgEve+uRVpqUBseHR4enahhE+gvpqCMNWQVPacrCSSC5iloeEwprg1U0eb1gobGAqoMqVw6h3WqzQytMSGXygtM/eK5GMCmdgqvlpDgsE6eqWgRlVnVIxFQbRT+9RfZn345wVtDaa8H8S8+05bzp8HVoX6e+ro2ky5hMw/vO4sZaAmQo6iDKB4IwHuJoMpFHn1XuQuoUoN0WlHnt38hj//5zzd476EyVARbGAnbNjABxOxefrbV+d3PBlSKA5RiYP3tnvVeSJcWzPaQAdYGhBJ05f9SDZ04R+vOAJeDJ6bgZ89Um5/+eGb23+GU2cPL4DsczAKXWX/q5RhBGPLo5A1tnWwWV9EZ9CaAOoCR4oMi3JhnubgiFceoXyPFXA6e2APtNEP3yvNvHeevG6sZGQeicnH0ww7UkvUlg0CvK3QWwH6gsLONMciyDFmWSalUgnduzZYIAS4HRSXQ1G14a6kOKpIU3LXjHNuF/mJKzetE8pKqfFf3I2ZGmmY27aS+Uqn0lI+tgSgK/X8L14P+ubZJY07SzotFwtFSEhczvPfcabWlKBl+K838wUf/GPj4VDsYHnuaoKu2BYiJ6vW6qqozfINp/tQNKN0sMvUtob/6bxTO7IdPOk+6V1+qq8owsenqDVqYq3Oe5WJDi1VB+g09MYQ25qDzlwQ2VKWbsl0i5DKisSmmytCOWEobQf9I39x5qMvPMNMTIuaDyz+wFkknsfX5ejaxeyLM0nVrtNeHsZC5C4AxaekffCLlqZlA89RCtzEIzsxkQyevvZAnX/nDErwLqTYCrLUEBwD9ybgwCyIIYL6ikA92574xBkSwF86eT6f27HJs2G40xVHbDZCxafxTn0nskXuGsCKrtjkIjgD3vS/k/Xc02g//AqEUB2S2N6v0RtB/O4QBIUAp/1+g3tOegDCKMH9pzrYarTwMwn63WI2lPNvgHR/I7JF7YqzeoNtOLM+j4B0PlIN73p3q5QtF7GXA0L+MDAYEA0bwdYb5s95swiAIkGZZcP7ceW/DQDYUsiAG1AuPjAE7mFFIIxOCfGecumuhLxkBlxFwGaGJYcj+kawJtESliM+eOms67U4aRtG1Y0jiQKUKu2ceN8jTzpa9wXVAFy6n7tnHAxoZvyKSNwjoHwNPLvT8p/+NUfo3YDMD6PLqWKwvRmfeON0+fNcRydPs6laRCGh0Eu7lb5fbD/9Ss/xPPtVGuWLhcoHq9k1TIsBawsLlrP3wZ1Rmz1R4974NZRTebPQlIxhfqc8g5nmf62+l9fnPcI+sLcdlPvXKG3b39O6kXI3jTqtzDTNXwbtnKP/GVyvuhadyHp/yUN1uMhQAy+yZQLMk5N23LRXLDBYRwNW20Kvjy3+TMUDS+h1anP9xADNAIarCMESWZqWX/+ql5j3vPJkaYyJ/tTrpouoSvGeGtT4f+dOvADfqOF4PvAfHVdCuiYH1MYCrkNF444U1n+gFFfsfjcUvLx1AAxFBpVrB7PmLpVOvnuocuP1AUF+o81VXhyrgHKg2DKqNbM1bbAg3llF4M9GXjD27K1d8Zth89vJc9vc7idxn7cqAR+WSfen5F8LhkeH28OhItbG4gdq+AVSgO42+IzY+VrqiTU6GGpbMz3q3xrIKQxBx9PQ3nuY8y9uVauUtkKEzeOhLxqV5f0W7cMlDhP9nVA4+2/tdEUFciZElafzU4096EDqlcpECegsbR18y5up6Rbs4L/CwCEv230Lk8WIjoxBXIoLqUBXzl+erT/7lN3IbBJ24UoEfwD2gQUX/onyfXtGMT6FZCp8kibQXH3Kt5hx6Dj0REdRGhmj+8lz1yb98IieiTrVWvUXIBtG/cungkT5XqNhkFf+8S/MPt9987X+oR9Q94w9QDI0O8/zludrXvvp/Wyfvv7c1PDpcaS224GVwT9gZBPQlI5ra2/9XRGAbQPP0z7Jzr/9Y2u58IajUoOqLQiEvqA0PUXOxWX3sq19r333yeGPqtj1xp9UyaZrihoNSf83R/7iK7OoJ1eryIhuE+VEmqgH49VW/F0F1uIq0k8ZPPf7NbP/Ffa077joSRlFUajfbRQHKgEfebjY2tXuqWHKqgd8gqBPob1FPbFO8ICpFsEEQvvHqG8Hli5fbh46+rblr964QoDBLE7i8KC24RcwWZYgvJS08bNh8CNCkN3AnImAm1IaHKEnTyrNPPhM9/cRT2fyly62oVMortQqCIFg+iP7/Z2x1XOGLzOZ+qD7qXH6ciEHMy+eNlMtlqGowf3khuDw7l4+MjeTT+6bT0fFRG1fiAIBxzsE7X1QFAUvVRNjxTJTuOerbia0loxi9p4OodD9s8J9cmny0m5gBLJ80hLgSw3sfLC7Ug/m5BRdXytnYxGgyPDpK1VqV4krZsrGmqLRW6oZ1dzJKyswIStHyeb3bgW2JuKlIOxwd/4cmz76YzZ77nNpwulclFKKLUa7EEBHrnLNnT5/DudPnXBRFvlQp+3K5nMeVGFFcQhhFFFgbgJDvlG5hYuTee/ES8jb1YXvCn7q8Cn6PFF9iQ7/ovXyim3qw9nTlIAgQRiGgsM4526g3sDC3oACEmRTFofZETLS2PuKmQpRMYG0pLm/L6rgZsei6Yfwks/0Nr/hFdf7vqMIACmbqqSoo/rDWwhbnI5KKGhFZkteAQnfUQblqCGwLyLk5iQFFP79DAf09DqMT2sl+RAkfE8UYrcks7A58FwPlsS91ddWqKP6OYM0wAZsqI7u5b1q8yDPW8L80xhwD8BBBvgKgWdhLegUZA4X1+kUM9f4soH+qpP9nM7ffkZQZLcKvsyA8AtVH2PAMKX1QhP4GGMcVcgCKia45Sz27w4MCIoa6HOJSlGrxw5J2HtusmzQoxZCnFXjEkHmEAmbnk33qaSbgYL+IOyyEAwSagmoMhtn5hUMQn5c4KmVBpL9uLD/qU2xabwwKGb0QAG8CaIFogQhtAIsA9kBRQU+N4Y6hSM0vEXOHmL6zVedl0XY5MLdw/RggU+UWbpExQLhFxgDhFhkDhFtkDBBukTFA+H8yyV8Tls0PXwAAAABJRU5ErkJggg==;shadow=0;strokeColor=#21A0DF;strokeWidth=1;" vertex="1" parent="63">
          <mxGeometry x="50" y="445" width="99" height="90" as="geometry" />
        </mxCell>
        <mxCell id="E9kqae5VklVFvgJIegH0-319" value="" style="shape=image;verticalLabelPosition=bottom;verticalAlign=top;imageAspect=0;aspect=fixed;image=data:image/png,iVBORw0KGgoAAAANSUhEUgAAAOsAAADrCAYAAACICmHVAAAAGXRFWHRTb2Z0d2FyZQBBZG9iZSBJbWFnZVJlYWR5ccllPAAAA4RpVFh0WE1MOmNvbS5hZG9iZS54bXAAAAAAADw/eHBhY2tldCBiZWdpbj0i77u/IiBpZD0iVzVNME1wQ2VoaUh6cmVTek5UY3prYzlkIj8+IDx4OnhtcG1ldGEgeG1sbnM6eD0iYWRvYmU6bnM6bWV0YS8iIHg6eG1wdGs9IkFkb2JlIFhNUCBDb3JlIDUuNi1jMTExIDc5LjE1ODMyNSwgMjAxNS8wOS8xMC0wMToxMDoyMCAgICAgICAgIj4gPHJkZjpSREYgeG1sbnM6cmRmPSJodHRwOi8vd3d3LnczLm9yZy8xOTk5LzAyLzIyLXJkZi1zeW50YXgtbnMjIj4gPHJkZjpEZXNjcmlwdGlvbiByZGY6YWJvdXQ9IiIgeG1sbnM6eG1wTU09Imh0dHA6Ly9ucy5hZG9iZS5jb20veGFwLzEuMC9tbS8iIHhtbG5zOnN0UmVmPSJodHRwOi8vbnMuYWRvYmUuY29tL3hhcC8xLjAvc1R5cGUvUmVzb3VyY2VSZWYjIiB4bWxuczp4bXA9Imh0dHA6Ly9ucy5hZG9iZS5jb20veGFwLzEuMC8iIHhtcE1NOk9yaWdpbmFsRG9jdW1lbnRJRD0ieG1wLmRpZDozNzEyYWYwMi05YzIzLTQwMGEtOTA3Ny0zYmY0M2I0NDQ4MTEiIHhtcE1NOkRvY3VtZW50SUQ9InhtcC5kaWQ6REUxMTEzODUyMTczMTFFNkE0OEJCMjIwNURFRDQ1RjIiIHhtcE1NOkluc3RhbmNlSUQ9InhtcC5paWQ6REUxMTEzODQyMTczMTFFNkE0OEJCMjIwNURFRDQ1RjIiIHhtcDpDcmVhdG9yVG9vbD0iQWRvYmUgUGhvdG9zaG9wIENDIDIwMTUgKFdpbmRvd3MpIj4gPHhtcE1NOkRlcml2ZWRGcm9tIHN0UmVmOmluc3RhbmNlSUQ9InhtcC5paWQ6Njg0ZTljZDUtYzUzYy1jNDQ3LThmOGQtZTk5YmQyYjY0NDc4IiBzdFJlZjpkb2N1bWVudElEPSJhZG9iZTpkb2NpZDpwaG90b3Nob3A6YzE0ZjUxNmYtMWNmOS0xMWU2LTk5MzgtZWVmNzNlNmQ3NjM2Ii8+IDwvcmRmOkRlc2NyaXB0aW9uPiA8L3JkZjpSREY+IDwveDp4bXBtZXRhPiA8P3hwYWNrZXQgZW5kPSJyIj8+s81c7QAAezxJREFUeNrsfQecJFW1/ldVHad7ctw8m3Nid2FZdpGVnJSkBEUeAv5RxKf49KmIAZ+I+sOEIphRQEWiZCWzsIFlc855J+eZjlX1v+fcW9U1swPMsBGpuxTT01PdXX3rfvfk72i2bcMf74uhvc1zdNhvc17P5+0ez/V2nj+O0RHwp+CYBKTmOQzPY10d8Dzf2+u8ILR7AJJ+muqxpQ7b87z9Nq/zhw/WD+TQPaDSPaAM9PgZVI+dI6ie19VjB7yGB8w9panlAaIDzoz6aarHWc+RUc9ne/y01WvQ47E/fLD+R0hJuwcoHSDqHvCFxRFSBz2OiiOifo94ng+r14R6AbJX6vaUrF7p2ROQafV7Sh30e9LzM+F5Pq0eO+C2PED2gljzpbEP1vcTSLUeUi/kAWZE/cwTR6zHERdHvnocUb8Xqefy1Wsc4AZ7SGG9hzps9wCsV0pmPADtEke7OlrE0aGA2qme61CPvUeXem3SA+B0D+lt+6D1wXos25qOxHOOkAJYXP10QFcgjlJ10O9FLam20oyVod+LxQqPBbRAdHnDmsiPlv0mGArphm7r0DQTlmWInzZs7WAvWHOvWrwb0inT/O6smzKjS6qTGSud0Gy9U9PRHDUijfFgrFEBmcDbqI42D8i7FKi7FGgznsP0bd9DtMh8b/BB256OVAt71Ni4ko75SjKWiaNcHBUOSDc2b6tqz3aWRYxQvC7RGLv9rV8Fm1Kt0AyN17dhB5C00ujMdMASqOF/AqRZ20JA3DJb0w7ZDsMiULNQYOTD0EPik0wpIi0L1bGh+OK0azLFkXhnIpvuKIsUNwwvGFrjAW2dOOrF0eABdKcCb8Ijwa0eKrM/fLAe9mF4QBpU6mqekpaF6ihTxyBxDBZH1ZI9q6t2pXeVxkJ5+VtbdgV/u+avaEjXIxSMwrBs8TMGQ4BRIERITo3QI/VpfqjzT9iW/GhbPn9Ih3jrLEls24StG+JTxHWI68qKD0uZKZa+yXQKIwuG4b8mXoKqaGUmlUm2j4iOaJw2cDyBl4494tirgEtHqzralNRNeqSt5ZG6/vDBekglqOZx8OT1kJylCpwDxTFMHQNW1q+reHLnC4ViRRr/2PAUdqZ2IGSEEdaCKM0rRYCAKABoM+4JjLaQnpoAp80rWWMJKv4qVGC6T7ZOYNKly1c7xPfNEp8BAip9LoFVAtfSaaMg4OoIWBpSWgaNyTakhdTPmhmMio7GRePPEHtM2vzYyPNaxxaNJkm7Xxw71bFPAbexh+Tt8ji4fO+yD9aD0hBtJT0dB5FXgjqSs1IBdKhl26OyMAffvfLesqVNayPxYARrGzdjacNq5AfzUBYpQFAAlQEopKZY9yCN1xaS1NIEOAgYDFQJ2gDDRaxgAgpLWZ2viqCti2VNwD2ku5Gd8wwFxf8tlq25XcoiFBsWTDuLoBVkEBviOruEsGzqakJ7JoU5VTMwtqga7akuzCqflrx+0icaDF3fI7aXLeItding1nokr1fiOg4qE75H2QdrP4Bq9JCihR7b05GeQ9sznSNbk21DlzSsKr977V/C+QKgqxo3oDndipAeRkyouARUi6SiJ19ByCoBQlstR4uBqElZyueydIUm1V5dglbcKHYK0XkEas0+tHowXSFtEpraBGzTIGEr1WGaDnEtFu8XugK24/DV+HoM8bM91YaubBIpO4PSUBEmlYwWZxm4dvxlqeml4+pLIiW7ooHIVgVcr9RtUeqyV9qaPmB9sPYFpBGl5joArVL25wjLtkavbtg4cm9X3cC/bXssurVpu1hhGTQkG4VE0gVAYwKoAQZddyhoB+QL2j0cPUd/9OWKDhR6ErK5kDLZ3KQid2RpZmxUhgsRDkQxtWwCzh384cTw+LB948tGbhUzslmcvk3ZuTUe4HYqaeuD1gdrryB1nEVObLNCSdFR4hibNJMjN7RsGfrY1ufKn9n5otYmJIhmZAUoNYFuQ9iiQfhT2UNS0xYl7N+MkLRZcehCSzBNGxXhMpxRfbL9sRHn1A/PH7orbIRI2m4UxxYlbevQPeab8UH7wQark7hAqm5UOYuKlR1KHtzR4pi8vW3nuCe2vTRgfevG6Mqm9difqEd+KCxUwQCkN8aSThhLU1amPxxnGdnb4JCTVO/JuyywK+xeG53pLozMHyJs3BGYXDA+cc6oU/cPjQ/cIF6wWhwkcfco+7ZZOaUSSkW2Pqig/aCB1ZtdFPSAtFRJ0WqSouKYtKxx7diX97xR9ej2J7Xd7fvFAtNREIohEAiwBA2wHSrgqZnKCtV9bc2LVY1ASRar9F6TXSsQy4kdFCMm73JSSNv2dDsCuoHq+CBcMvw8+5TBJ9UIW5ek7BolbXcoadvoAW0GH8AsqQ8SWHuqu04WEdmjI8UxXhzTXtv/5tgldctKHtr+LGoTjWx7lYQFnjWDPbkkSWFyfIMXpCW0M/bVarqP1Z7WL8eDu9cVSKvWch1upJzYdhZNyU5ExEZYFanAJSPOxpyqmU2zKqYRWFeIY704tiq71sme+sCpxx8UsDohGAIpeXZLlMNomASpPX1R7YrxT+98ofSFvQtRl6xjKRAJ5vGub6kQIK07khO2DRViUZs7qcG2fUy5io7+zmgxEMmml15tTYac6HdNdwHL80Z/E89nKGPLTCAoNsaKvEqcMXguzh92euO0sokE1uUKtDuVQ6oJ0oOcRC7k44P1P0CaUhpgTIHUUXcnmbY5dUPzlgl/2vxw1Zs1K7C7cx9ChgFDCyEkFoxlK1mgyzCLrZIUWIjSGlOqMDS16PzRbeY5PGVKAwFOAghvbJrMc7Z1JW0ttvltXSWECG0mLaRtVszpwFgZTh84F5ePvqhmdGH1OvGClUpFdtRjAi15j1P/6VL2PxmsjvPIiZNWKEk6QRwzNzRvm/qXzY8MfGnva3p9qhVBnWKFAQQ0wwfaUbZ12bYFpT+a4rCgZzSUROI4t/p06+Lh5+wbXTSCALtUHOuUpK1D9zit5YP1/SNNAx671AnBjCGQbmzaPuvhbU9WP7zj6WBLug0xIwZDNyCTEzRHOfNRczTBSokhtpKynC+tsZbTmW1DebQElw+/MHNB9dk7qosHvalAuwm5kI9jz2b/06TsfxJYncw4ciDFlfOIQjAUJ50ijuOf2fnyxG8u+lF0d9dulMbKERHqLhuiZEvRy3WZD6vDl65Hc1Aqps0Z0zoXNtBdJZ+eIZRc8iDXddZjVGwkfvKhWxInVc1YK16yRByrIOO0e5QTqkM5oP5j8o7/U8DqMC9ElTSlWOlwcUwWxwmrGtdPv2v1n8uXNKxEfbIepaESNxFH41igwdswPaZkdVvzJetRlK0MVov9TqryiNVim0sFye6lMsL6RBMGxyoxq2Qy/nvq/6sfXVRNDqjFkHHa7ZAxWpKyCeSYLXywHiO2qSNNB0DGSme1ZzpP/PmS3499ou55Y3frPhSF44gGIsgqBwd5IWlVWLLURPxHXksDuu8rOqpgdWoAbTtX2KBxmEeW7dFvhhZEu1CLO9LtGJU/Eh8dcKZ546yrNoaN8ELxClKPKeyz3yNl3/e27PsZrI7aG1YOpErlQJoo7uZJKxs2zLpj9V3lL+5dyPm6BFLYJiel8+1Wi4CD9yRbufTMJOelAKuvBh9NrNqO5qrJ/BWnZkGzVNxWPDCpZE/czazYWZOZpLBnEzhzyDx8fcrn60eXDCewvi6OtcoBVascUKn3s1r8fgWrY5uS2luEXHrgzKyZmfvtxb8Y/+dNj4RieUGE9bB0F9Ed1xmvXJpmuXRmtrsQoKpdND+74ehh1a2vl1VIGofFwPW8nAQFFTLTHEJHCV5SmxNWAlbCxtXjL0t/84QbKCa7QDmgnPTFFuQyoGwfrIcfpF4nUrkrTYF5iWzyxP9d+P3Kv+94EgOj5ZzSZvvm5wdEINvsPSYg7+2qx3+NvRTfm3VTrVKLX/NI2foezifbB+vhAao3C4nUXkoTPE4cp9y19t7jnt/1Rmhx03KUhYsZqCwhfbB+IKxcpsHRLPW7hrpEI2ZXzsS5wz6UvmbcZcvE0y+Lg35u9ajFTvbT+wIEgfcRUJ3YqcNtRHHTE8Qx/7Zlvxz9s1W/4YSGsrwKGJZ0Rshb4KP1AyFXNZN9DZwAKh5XRoqwoHYJFtUuDXVmumZ/YfKnyflIGWxUuEFxWYcr6n0Tk30/SFZH7c1TQKWQDGUhnbSmefPc+zY9MuDeDQ+hMBRDLBBmxwN7diGJx2wfrB+IYcoaKOji/lu6zNMmh2FnJoW0+HnVmAtwxeiL948pHLFAOZ8o+2m7AmzX+8GOPdbBSkhzUgYpE4kSHKaT2vvwtqdm3r78nkIqsQrqBkK6zk4G8kKYxAbIjgjLl6wfEMnK9bKadEhRLJaqpJyQT8bOImOmURmtwjdnfL71jCHzliq1mGKzlEhRh1yq4jELiMAxDFIaYeVIcoBKau8Zf93yzyk/WHZniNgHwkZQ3CADGQ2ujcrMfJJazIfqB2JoikxONfthMgBTSCIhW4WUDYrNO2hHUJ9swLff/HFhxkzNO7f6NPJ7RJGryKpTjqeU1xT2wdo3R1JQ2RcOtcqc5kTr2fdteXTcPevvR9bMImqEFSWn3EGdDF9yNuiWqpbx4fqBGIaTQGHauT57TOOqkCceRMRyb0g349tv/TTUmGyZ+ZHqM+NFkfwocr2GKL+4HcdoneyxpgZ7S9qKlCOJspHmbGjcetY3Fv6oenHLcsSD+cjT5T5jqzicz13pj94XONiGpWSXgCnZPIg+NZFMY3bpdPxg3td2jCwY8qz4wxuQWU/keGrBMVhydyyB1aFbIaASFxLFTyeJY+7yhjUf/t+Ftw9a07wOxaESBIyAWx+jM2W9vyj98bbmLOtbzEjBNKqcZYyMlUJLqg3Ty6bhjjk37x1bNPJFyCQKqpWleGwzcm0/bB+sBwI1pIA6VBxTxTF/Wf3aD31t8W1VW1t3IB6Os1qTa4+ms2Qlgmxf3fXH22GVK3g8JXfMcszrKIuOdCfGFo/BT+bcUiMA+4o4/SXIAvddCrDHDEnbsQDW3oBKJW2nLWtYM//LC28t29dZh4iwTx1GBs2hVXGyzXyg+uMd4Orke8uWIFn2FEuXhsVe5ISQssPyBuOXJ/9fw9iiEQTW5yFL7o4pwB4LYPXaqEMgy9rOWtW4/rSrX/qfwrZMC2LCRpU5o1KFYTZ6ZsizFHu9P/zx9mBlGigVd6UkJ0s3FEePlLKWZqI924mKcAn+9OGftY4rGklgJTuWyu1297BhP7BgJYka6SFRT19av/qMK56/IT9lplEaKeITLaaxVO0aSAFmeh/dFcv+8Mc7DUv93wbc9iSSrFImU2i6jrpkM/KDMTx42q/bJ5eO/Zf48797SNgkjmLFztFc55pHog5TEvXUhbXLTvuEAGpnJoGSaIlk/qSCYwaqrIrTlWTVndiqP/zxjhJJHYrFmFkq+dC4kkfTJGNlZaQUbal2XP7ijfnLGlafRutRrcthap2Gj6ZzRD+KQCUblVgdqLyNqmbmL6x9a/71r3yjMGklURmrgEmF4SptsNulatJg1Xx71R99UYTl3o5c8qnz/+4FkZYQCgPyyrnB1mde/Vrhm3Wr5tO6VOtzsFqvoaMFWP0oAdWb8EBx1JOW1C2ff9PCW8s6he1AtCu2mVEc9xqXPfnDH0dikBZXGi5Cc6INX174vbIV9WsJrCepdTpQrdvg0QCsfhQ+z1uLSiVuJy6rX33a5xd8q7KJbYY8MWGmagoK7iNjab5V6o/DIHGpiF0Jgm6PSYQK23V/Zw2+uOg7leuaNpFKfKJar+Vq/QaPNH6O5Ic5ZW556gtzru+6hk1nffblrw9qFEANB+Iw2aowYHPhuC1jqL5k9cfhXpw9SPJsQ+P+urva9+LzC74zaHPzzrMgc9NHqfWbp9az9p8GVgeoZKA7ZW7H722vPe/zr35n+O5EDQoFUHXLgiHUEFNzjAxTMuD7WPXHYQKoF6TdHhMxm/i9IBDD+tbN+OqC24Y3d7WeR+tWrd8ytZ6PGGCPJFgdoFaLY4Y4znpo+1PjNnVsEjZCMedv2syIRZ2/KT1M1sxQ5QS1VfCHP46UGiyHpTxTBoqCcaxuW4Ondj8/jtatWr/VHsAekQUaOEJAJQ8alSRRYj551k65b/PDU3+77n4UhwsR4BpEqLaJ8EhSVeLmS1Z/HGbV9wA1WKWcU4gnbIR4Ff9kze9QFC6cel71ad5Gz5TdREwTqcO9UgNHAKj0GdQUimtSxe415/Htz8768fJfB8mRFApExbe1hLWudVN3fVnqj6MrdnW4Cp1YmBE9go5MF25d9rNgyAjNOn3wvCYBcOJx6kSOy+mw0sMcbjXYyVByPL+z36pfNe+HK+4pzAjbNGSE2U4Nsgrirw9/HENYpf67qkUl87DZWcQEYNszHfi/t+4s3Nq6cx6tZ+Q8xJHDjSf9CACVSKoo5/c48c1PfXjb0wMaMs0I6EFPXq/hMtP5wx/HhIpMBAYEWN1WpZjE7SQEiwBsfaIRj+18jjo/nArJrjlErfPDCtjDoQY79TBkeDsZSlSXOv/HK38z6tHt/xYSNSQ+WJGvUD8ozs/UfdPUH8fMoEQcJl5jwBrcFJqTdIRQCYnl/fuNfxP2a8Goa8ddTkkTxEXsbTfp2K/2+wGsQWWnErcvMeXPu2fdfcf9avUfEA6EENRCXKpEtYWGZkiVg1pW+NLVH8eKZBX/THZwmhxO5I7tTt5iUEc63Y7vv3UndXw47soxF1FPnWZlv2YUYA85W+LhENmO+ks8rZQAPbM90zXn8Z3Ph9K2iVggT7WtoOkIsEmucUfsrL9CDoWtdYRe859vs4rVKSAXsGTnHehuNQCPgmA+ujJdeGrHv0PijDm0ztV6Lz1c6rB+GN4voNRfCtNMytjZud9484eUsoWKSKlMndbkqfKHjGVptp9S2B9wWayNWLIsE7LgwXIYbjSlskH19IHsHWNplotMTbbn4udsZt31Idt9jpUKTP4UjlRo6qecWBKylPS/qG4Fbl7840rLtuYqc2+QWv+BQ42vQ40QKiR3qENHJ1KpOd9d9LNxD2/7J4rFTuS3PT2EE81BQEloLXlyNabf5P534qelmqXpjhYjSYgUgClLzJLamnieOuhpflOgftmzUI2yCiKF+N2GB/CjpfeMS2Uyc5TZV6FwcEjbER4qm9VxKjntLcidffyG1q3H37/p0TDtQFm11Wt++5lDsu+TLOS6TF3W+ZJNlTRT6MqmkBY/s5qkLAmI9UKe93AwhHggyi1GaA3ZnHNtSatM1/z70l+zgbmFdFaTB8bK8Jt1D4Q/Nvqc40cWDavx2K9ehkT7WAErlFOJxD+5sSc1Jlpm37Hu7rJwOCzMUvExVhZKkfCtpEOxN5LpYAlAinlNEZdQxsSksrGYUT4Fo4uqURQsYDWX2Db2d+3FqqYNeL1mBVpSTcgXWo6uBWWbEWLgUJy7fg52H2df0d9yNZj4aZBtG9Tw/RV3lv3ipO/NjgejexVgiYM4rY5jQrI6XL9OlhIlOZ/wq6X3jn111yKU5BWxR8121Sx/RRwSNUaANGlmoOkGTh1wIj415hKMFCAti5T0+ppENilAW4endz2PBzY/jnqqcjICCBBROjFx+E28+uF8UtoMaS86OKwTDYXwr52v4u7I/WP/Z/a1VJ1D/WCpj05CSdeD5iA+FBxMpOASqzmFaahh1FlrmjZeet0rXy1rTrUgHIjI5rc5vnx/URwUUDWu923NtGFQbCD+Z+o1OGfo6TJ/tTd9rZep3tC8FT9ZdQ9e3LcYYVKRxeE7mPo+iGBNsw1p5+uyAIAeJrMJlEfL8MdT7mgYXTj875Cka9QAq1aB1jpYoB3sJu/k/pYp43r2L1b/sWxn+x4B1DAn58vDYne4D9T+2Ua2pmZM/c8SRkVrph3DC6rxq3nfw4XDz3WBakvXcA52aqp5hcjcOf59XPFI/GLurbh85HnoyHQga6fRs2KCF6B/C97mxshaay7htBS1EElXI4KtLdvx05W/IyzMVngoU/g46FK6gwWrN6WQYkwz/r1nwcSl9StRGCoQm47OPL+2Wjm6f/f7axypBluqfEusDFJnB+YNxC/n3IpppRMVAG1XitqaQ3BL4DSlisuePV2+n8rDjoiF9Z2ZX8bFI85Bg7BjLVieDcKC00HI+Xx/eBe9Iu2jR1oOCCSUikKFWNKwAgtq3qLqshkKF4ckFfFgXnxA6dvWpt3H3/jKtyN08/MCUf+uHuQwLIsXgKW86FT8IJRW3DLj85hYOgaqrhAqKui67wy1cNgJxXStKgCr2iJy/JAcI7qOW2fdhBllU9GYaJUsf5oiFeO2JLbShvzRV00oEsxDXXstPvfizZFtrbupUH2iwkchDpJs7WAcTIayVR3mh1n3bXloZG2iBiOKhjFTnD8ObmSVh1bj4LzOtuqZ1afg7KHzle0kE84ZhGrbbUq14tFtz2J9yxZkzQwGxitxyoATcXzlNCV6HctXSs94MI7PT7oaX1p4q7C5UggaQTdxRdFg+QyS/ZBepvhXHi3FzvZ9eGjbUyO/Ov36WcrZ1IRcOmL2SILVyf+lUA1VH0xY27Rp2n1bH9EHFwyQQXp/HIK7r/N9JUCazHpr46pRF/VwINksEWk8vv053LXmz9jetRvt2QR0k9TdAP665RGcM+R03HzcjcgLRuGm4CjV+YwhJ2P2pmn4977XUBookX1OxcYgQxQGfA9+P24Z0xLZqIqX44HNj+gXjDh92pjCkdSdjtpJNiPnHe73pL5XNdjxAFMeZLU4pvxx44NVWcqg0YPwoXqIbjxXI0kvetrswpTSSRhbNNJFqgSTlHqP7/gXvrP0Dmxp2y520RCqQiVihy9BXohyWFP43Ya/4eYltyNLIHTY6N2kQw2zBxyHeDjGfW81roE6yr0i3rf2rMH/D4gNtN1M4G9bn6yC7DRRrfASfa+4ey8v8vL+Urhm/KrG9ROf2vmiTsY1pbppPlwP0Y23uTcweR+T2QxOqJqhJKOzLUubtTZRhztX34t2Acp4OB9BLeCqu9QcMxqMoSKvRCycJ1hFdk1S5BIhjq+cjpJQMbJWFoYt1W7Ysvak+633xzsP6WfQDAN5RgTP7HxZ39iylezW8Qov75l3WH+PAM9DLq1w6t3r7qvU2NOo+mD6Ton34J3I9V+R1ViynpJBJcDXmm5DdXygR92CK1UfE1J1f9c+RDWZ42sbppSXtpMvRjnDIe7j8phQlYntwJWrmjxjbGE1dD0gDKo0E13T85wzTGdpzvZruvazbOPnq8c9B/VforxrzbS5YL0t3Y77N/2TQDpV4aVM4Uc/3GDtyaY/YcH+JRPfbFjpRuk05Yv0Rx8xyh5XWTdDkNB0G7lshgBMoanUpuoxND4AE4pH5KSqBjeksrZxM7qySWjBsAQpcy7D7Z6mcdgng4gexbrWzWhKNDmKtPT4km4WyMO0kvFIZVPUF5wzzoT1haxzPZrmmrkczuHcY//+HQAoW2pEFm9zOtuwr9Uu1JbWryLpOgEHweqv9xOohMRuXd8e2vZ0SWuiFWFqo6ekq59j2o9JddRRXVHcZKXENLNZdKbakW9E8c3jbsCjZ/0eowtHSohxrFRzY3wEaFZZxfO6BVeictCeFg5LbZ3bMmWtNJfXyc92e6nx/2+d9SXce8qdmFk8mZMlMtwi0WJOAO60Ru0RbbkAWcL6VY29gFU57yhyZpssXfd01gh1+IUSZbsOVfiJAP2TbP31Bntt1bEv7Hl93Ou1S9mpBBVGkHWWtu/u78ceyAqlKnMzxRxSUXMsFMXFw8/BteMux6jCao8o9hiaSgAPilciKMBuWabkDVJSVe7GAmIsFS2uyqmODkbciOf2X825UzaKw0U4dcgczKqcgid3Po/frr8f29v3Ik9I3ZBtQCnAalP2W232arHqOpcq2rRRMmVRgEkBn9+7CGcOXTHu+Ipp1DNnizga0c+er/2VrGG1KwxOmelJr+xfXNKUaEBApxIt3e1K7tdG9tMhwaAzOC7ammnCyILh+P7xX8HtJ3zdBartgtPKyUI1zacOmou8YD4yRJWjwM9/t2SBv2QjMdCYasPcgbNREi3yqOG597aUWl0QiuOK0RcIKfsTfGTYaQLkCaFmJ1yCO1Op0P5t7t2sYc2FOq0LoBLhWkjgo7azFm/sX1qSsbJUoD5Y4ahfBOH9AWtIGcbkfh69qmnd+Md3PMu1kgGly5kOh5J/E/tliZBzLpVJoinZijOGzcfvT7kd5w09zcGym1LITBC90LaeUDkd5w6dj+Z0G+cOy3pVyRhpQnY22Ne5HyPig3DFqI8y71U3Ka3i4kxZ53n/oQVDOIf45umf5/TE5nQH8yboSovSfKO1V0DpXDpnw7FTAsJETAtJ+49tT2NH+17yCo9WOMpTuDqkYDWQa3w8KGWmJj2944WKdnHzgkJFMilAIHaQgPJA+DvuuykoXiewhoRQe6l59PUTP4lfz7sNg+MDVD6wBJOtxCPnn2qGpGwhO9TK9Rb9mrBrrxx9kQB8CxrTLUhbKaSEfdqZToCKKkbGq3H3vB9geMGQnEiVFyCTKlQPXFvZstLxJM+5Zvzl+PlJ38aAaBnq081Uzi4pYt7W6//BXQC2ilyTp8nkmLaseY0aQTQKLfTJHf+uMG3LoX9xGjT3iVGiLyVyjgeYdoIx4pi/qWnblVc8f+OI5myrUJnyVQ6pJCeU1Qia72TqBkjlUFVUK7amK9VXF6DKIpNN4cbJV/PhtUWd3Fzv0t/Tvg+D86ukg0lVjOfOsfDY9mfx9K5XsKFlOyyhFlfmlWF2xVRcNuoiDBGbQK5szvE666jpakA0EOLiC/n5lpLHjn2sKa/zenx2wTeFdNjHPUxtdY3kFqZEJ92S38lm6a5/IP0Wzhanq9xqN8VTqMKNyUaxaQ7BfafdtW1QvOIv4tmXxLFJ2a/vyobYV7DG1E4wzbTMC29f+uuP/m7TXyOF4bjvSOqLVao5KmaOwEwX9qQpFnXGyuDzkz+FGyZ+2rV5NFVto3kUnw0tm/HT1b/HztY9uHPe/2G0sGXJdjRkjVaOJlOMzkwnGpJNrEHHg1GUR8rc93aArfHr5PvfvPgHeG3/m/jvqdfh4uFn97CRu8tKYpz4woKbsat9PwoCcXaiGG7qhMwmlpuS4a+MbkCjXG8T7elOfGnCtckvTP/04+LpR8WxQhzELNH5bmDtixrslMGxCpy0UiPWt2+MALZKSvPHu04g2fMuDYgGQyA2q2fRnu3Cp8ZciM9OvNqVaHClsByUHviHjQ/i0y/fhGd2voTVzRtxx/K7OVxjeHZyy4kB0c4ajGFY/hAMF4cLVCg6Elk85wL1oS1P4v6tT2Jr+258a8kd+MLrt2BP514JaE1qA5qjEIv/TSkZh1tn/g9K84rRYaZYfkr5rKtQEJiczS+HPFC7IgMmLTbnzV3bI5ZtjfCown0qn+sL2pwGyFxds6JhffXOtr1ix474dY79kKwStLaUsMJeoMSEDw86SUjVa6XCyVJPZQzJVHq0pdpxy5If4bbldwpbtA0lwSKUClX1hb2vied/yFKZbFhNqayW4sm0XRVX1ahSrNR2KlQt10B6fs+r+MGKuxDSDQHqYlatH9/+PK5+8ctYXLPco1jJ97Rl0xecPPBEfHnyZ2AYmlh8JnuyKUuKTV2qDtJ9T/HbDeqovr55C9Y1balGrs+r05j5oMCqK3uVavEqTTM7+pEtT5Xu76pHQAv5M98PFYg7ktmS1qY20YbhhcPw3Rlf4hTAnF1rq2QhHfs66/G5127B3zc9gQIjj1k3bJ06m4UQCoaFNHwCN73+XeztrHEhpbvePSfQqrsJFzmdVkL1b1sex9cX/xDJTBJx8f5kYwUDBorD+djaugufefWreHLH8+4ycC1QtT9fNuqj+MTIj6Iz26FUX82VvpptuxuUPzy2rJgTyiLb2r4DT2z/V6m43+QVrlT4Cr4bHo3vfOc77yZVyetAWRfHLd6/4kO/3/j3Us591HXfJumrGqzUVFrMqWyGExdun/0NHFc+Sd5GRSBtq0qave37cMOCW/BG3TIUhYuVeqmrwnFLvN5A1Ahhaf0qvNHwlgBbDNVC5Q06ySnoaWvm7NlFtcvx45X34Ffr7uW4KrUzoRi5U31D15MnNoP2TAL/2vcaBucPxPiiUTkHsuM8FKfOLJuChbVLxcZSi4AR4dcauS3CXx/dHD/SIZgVG2dIC2BP235tRvlkrTJWvlv8mXZcah+ZwjvwNAXexbHksBZSS7vq7V27BzakmxENBFVlhn87+qYGW2zHkfzpMDtxxajzcNaQD+WEnRJZJL8aUs34yuLbsbj2TVRGywUws8hC9grVbdN1JJH0pb9vbtyGry76Pv6+5QnMqJiMWRVTMVJI7XKqgBKg7jCTqOnYh2X1a/CmAPfCuuXY21WH0nCB0I6CUtpzWqJyD4n3zYjfCsUGQDbpd5f8BEWBGOYPmguV8y89/uK/WCiGm6Zej2te/h8IrUu8n7Kdna4LvpXkkaxygg2i2hGTU5tpQF2ykfKEqxW+domjDe/Q4zXQBxWYJGtlU6pl1Cv7F0aNgKaS9f3RL+8CiA40wRLwuglXurasBic6Is/5yYrf4N97XuOQi655UvxslXjvhGmUF5/K2tJ2miXckvoVeGTbMygM5SMiJC8BOmNl2TtMbQpbhA1MaYwDIqWuLepoXprHGcZuJfF0TItw1citS3+BqliVlLAqldTxV8wbcDwuqD6D6U0r8kplFpTKZvOHV/KpCKwtHX0Bw8Azu1+Ozq6aMSoezKtUOCPqUgrhmP21Wb1e4AF7OvcOWdGwFrppKEeCfzP6c6MsRcN6tpCoowqqmfZGt7tnfD209Un8eeNDqIiWeIr4tZzw7UWTISlH6m9ppJidF23pNmxv24W1zZuxpmkDNrVsRU1XPWfVEJi4MRjwrmLPVu8dF9JzW9tu3L7iHhC5AJTzyKvkfmrMBcxX3CnsX6mqmz5Ye1NUuZJJl4aCaQqTZCmak62UpTKgL15h/V1UYLqzzFy4uXlHBQXwyX4itc7yVeA+3yQCXTabRkWoCJePPF8+q7KGnFmkLKOfrf49okLyBQMBWdnSX9tYvGfYCCMWzGPHVX4wjrj4GQ1EENAD7/HqNeSHI3h13+v404YHc84S3n4kICeVTsLpQ+ahVUhhx671K3J67n42Y0cne8ayuAYqZWexqW0bEeM7DIh5eIdKHP0dQBxSorm8Ld0x6i+bHwuRShTUDeXh9HfOvlorzBoo/s0deDyGq8R8zVFr1X353fr7sadzP2LCVoSpK4gfG3Mc0KN8Pfduegi722tdz7DOyUvyGs8fdhoqhXRNZZNcQGD7sZseu57OUpWyu8g7HxRmSn2iBXevuS+UtbOjlN1aoHCn9xWsmnre6VxeJW7A4K5sl1pgsgWenw/RP+8Cdc/+2Khzu6mYznJe2bQOj+54gfvTUC6Q7PJ27Fw+uZ+oH+n6lk24f/MjSv3WZTaUsrVPrJqFyWUTOcdZt+GkXvjDXQIuezb7KmQkXUDXpgJmnapwqhTewnBoiPsoWQPIFZkPv2/jE2U7hJqWF4zIfp6av3P2Z6TNDMYXj8K44rGuVuJt0HX/lkeRMhMcDuMMJ9s+phg3gqSSC2lQItT4f+78F2gtODFXTRUckMZ1YtVxiASpEVnaBbE/cn4LbiOj6oIlO0cMm5q34ndr/urQ+TpF6YH+SFanJQbbq0sbl0Yom4Y6j/GHWg7DgD/6Mqge9JTKmYi5xOeau8/u66jBov3LuBWjqQLnx1ohBMeIhTgg+3dL2w68tm+hsruVmq/Om1t5nFCFi5ExTb+m+UBjiO149kUQ84ZmImwYqE02YHH98ojHbn3bVhv626jApDcTIwQhvipgBNnVDNtWZVqW36m8HyNjm5hWPqXbLDtwfWHf6+QRhKHpqiWDdUwqkE6GUiwYxUv73hDqblduIaplNal0PMrC5fx9/aqrA4GlqcZFLh8zaSQCW3HJWFml8JbvsVu1d5OsXnt18KLaZRXbWnchj5wMOvH5GEw94t+NPqrAVgaDo5UYHKvKGbCAa0Ysql3BNC7krSU2Q5lgf4zpLZalJL7NtKZv1W9ATWed+h66+72oqH1E0VBWiS1/ffRpxAN5nCu8pmkTeYUH97Bb31GyytomSURM+YqDn9z5fNGqpvUoCMbZ88f3TNd8b3CfVeAURheNQCknIvDKd1XIjnQntnXsVHFLg+fUtCX9qHYMLXaWqpTvK46wuM6WbAs2tG3zqMK5zWdc4QiEaePxl0efRkGoAAtrllIdcpECa6HC3wGtEPRewBtUenOpOLXKNjWDYn8Zw5J0Fcqh4Kca9lGyZtMYWjAIheH83BSrW7CqeQPak20IaSEGA3XdM1hFMl2qlWPC3lLVQNzkSlxXnhbEyqYNucQYp7RPjJEF1SCzCb43uG9Ki7jXsXCUtmpDqcKlCn8HJPa/E1grFu9ZWfXEtudREimAZprwlFWocil/vNsg13xluNSzteUe7WrfI3mNjADHMS1FNmdz0v+xl9LJ0lVoVboexK7WPUibaSVdc8kdVbFKVodtX/Pqs95SGi3GwxuexcqaDQTWiv6AlTxTxFVZsTmxrXRPeg/CdkSFGiwZH7TtbiwG/ngH55JloiRcfICtQaMp2YQu00nRg2IAsVRu7bG0nOzu+4y43sZEIzIKrLZSk2mURYq5QMD0owV93QK5bG5Lcge2dG4vVWCNo5fUw56Ic4jR6OSSSDCcH9RDrn+SypZ1OyDjrP4s9zrxXj59OWcWQoGQRzrl7NG9XY3Y31EjbNcOJK2sSpKXBeKyTYXdyycc/uvv5ghTxfKsJZhZdKXb0ZJowdb2XUJrcNaF7dquUaHS66rlhsqi6fF+/uhFFxamg06NwchWKlH4O4BILdBtA80x7hdatl1a19EYDIpdkulbHB4hDu7683ugigi3hEZKGqU2in9BLTfn3lyB0QVD8eHBc3nSiUpld2cN4sF8FFNBuluPZiGjB4hPkOPblta9SufQwVTxBqv35wRJVbiayGbQnGpCNBDFqPxhKI6UojKvBEEjoHZ4pxudeBwIqOwsk21wzosW3z9Adjh9gu00evbXTM4nQMUYITR0NlNzXLKZCtGdsd/uDaxOMkTpptbtA/608e9CvBb5s9kXVZELHDS3ksbUAlyL2pXuQkcm6SLCTTsTs/1f4z6OK8ZcgHohYTe2bsWG5i14YtdLWN6wllMPo0ZY3MisBCoViGtZ2TpDNw69msx17Zrs00LNlcSnGsigSUjR4lARrhx7MWZVTMfUkokYEhvA8VYonmEJcMlqSV0BWlPtrLRxiE+3ua8sp9lRZa6mw87xSvhDolXYrWX4xZo/4qQBxw2oLhjiOJkC7wRWMmq50qYuUV+2J7EfA6KVfhfzPkomTfU50XSLE7ZJXZxTNQMnVE1zd1DNrVCVUiskdtRB8QF8fHjQXHx0+Fl4YsfzuGfDA9ztLS4ASwyGWU1SI3K1zuFY5+SNVskapMZShVUi0y6u5wxcPe5STC+b1Mt31pS6nuu7Qw2uLhpxFu7f8k/oAfH9CP62pchJDZlP7DufeuyTxB4B7OzcifpkU5kAq1OB0615ld7Dfg2rkwqDeiAeERPvA7Wvm6MmeYfEz6xpiYXegfOHn4aHzryHaUOZWtR2oGDndGfOF7Vc/A2KVTHZ9+8+dDsmFI9Cl1BBs7bmMrxzufhhWOx0/dwWQ0jwRJZYMVP46nE34Mcn3pIDKrODSHXWNc6h5SqIxN+Jff5bM7+I7866ifvEdorrd8jpLfUePlgP3PbIXIoaMeQZYbJXCxUOuyVH6D0kK3lC4uKWFHSkkzHDn9M+D11GtNju6zLTuKD6bNwx5zsoc5MhdNdR4yx8boehPMEyId52q1VmlE3BT2d/ExMLRzLwKXeYirq5181hSJKXrQo1dFkprlX+xvQv4Lrxn0TYCLmag2Q60Nw+N5qXh01dPyVOBARIPznqAtw644sCsAT+LsUinHVJyf3hharudlzoyCZjhD/lZAq9nWQ11B9jLcm2sp8v/00wHPAZDPtus2qc39shpNKJlTNwy4z/FipuEC41qO11imqcVqi7LBCyo6dM4NfdhIiRhSNw6wlfRXG4BC1CJaW2FczldBjiOnQlGSuNZDaFz064Ep8YfZHH8+R4qXW+bs3LE+ElZtOdgJ6qcRUq/Zen/T8OXyXMpLj6kN/Qqte5l845cuB9/81fBttTHWXKZg15PcJ6D08wh226sonyfaka5qT1R19NPpIsJtOGfkUsUOJBspXzgPvSqOkmodIpJM3qhg1YWrcaG1tU2p6SPU7VjcOxNLl0LG6Y/GkGEfdh1Q7X9VvImFnMqZiGzwo1HFBqq3QNqxCOPJfYDJfVrsFb9auwu31fbgk54tZVkSHs3Y/h1MEni+tP8/xo3j/6o7sHwLCwK7EPSStTju7hG62ng4kek4svnkGm0NAD3ILQd7H3fdSnWvG5SZ/E1NLxXreTIvbWWEV+cMs/8dTOl7CxbScymS7kR2KYXDgel44+HycPnO2Sodke1qWLR56BJ3c/h0X73kJxXmkOEIdwUKVMJBTFNZOv4I5xbjzYoR8V/6ic6w/r/opXa95iXidSa8sjJZhdPgPXTLgMw/IHH3BZ9LrPTL4cK5tWoyNNBQthn26vF+ckRRKoKx9xN4sNslCBNerFaMAjWZ2C85hpZePcDNavnOjHYs9yX9Pzh56e2ylt2yXx7com8a2lP8XfNz3CNmEsFOFWmR0dndjQtA3P7X4VX5/137hm7CUuOKAaLMcCMZw1+ENYXLNCPJWBoRs41FQdtD2MF/bx/AFzXNVMIlZ+znqhAdz0xnextHYZosE48oSJRF9tU8sOvFW3Bq/sX4w75n4LM8smd4sRU8rrrNKpmFIyHgtqlgrbOAscQ4X1x4oaTCE/0w6q7gxWXKnBTiE6T2hvanA0rEUinKnkY7XPg+o7Z5dOw/D86tx+qeVKEu9c8wc8sOERLuAui5ZwyWFYHLFgPgbEK5HVsrh1yR14cfcCz0Kmom95E04on4mh+UOQII6jw2D00b58cuUJYhEYHq1WLo/mdAu+veTHWFO/nkNMJeEiRPWIkMBRFIrHgwsGYmv7dty88Ieo66pztireUJzrnzfgRK7dzGWP+KObCkwMEiq0J+Y1oqRqNzVY99iuAWXQxtc0boqkkWaHiT/6Nkhyji0dxT2A4NiqSinc0LIFT+14HhEhjSKBsMoE0zlxnxsWCQFUHC5Aykzhr1se43xhuParfI/RxdUYmFeOlJ1jFTyUwxSfM7kip77LLgFyPLfrFaxqWIeSaLFLR6OSInlxEQ0NbUCbW7fjnzufd3d/acJaru0d1ELic4xjtLz+qEKVOOYYhBlh26+qX+fk54cULvWeYA0qJBf9fMUfQxSQ9/e/fqjBVhYV0fJutqrjVlpYuxz7hMSJhGVuNi913YTqiuwu/KK8fLzZuBpbW3e4Th+npI48y4VC/cxy9zjtMCwXYIB7/Q6BqgTVy/sWSb5g3bFCLSYicDYSydqnIRwK4CVxLm068l0th6Icg/IquIsafV+/GaRXBVZzalHxvo22TCf+b8kvCaROo+VgT7A6NiszRASCtmFYfv5mfwbFF6NOTJLL3HIt4Ek1pA7kQRjSkaDO11RIhEIxlPcbAtFTNqE13Sp3UE32t3F8B1wnSgkUh1wNlp7cqBFxocuxUFtmWtV01nN8VSZRyZpoKpLXLRV9tWUjZVLliEEia2eUBDDcHOZIIKJI1GyfbK+HcynXVMzgDLVghLxMLmNEwKsGaz0kaxyGoewVf1L7Opi72bbcnU/zNDcmxr+AwSeIG2IqMBsqXilT9SyVUBATanRYD7uqNFSNqyOpGEOH3PEnG2KZDouFGwuWf42GQoBD625nZa2tWh/y+i3FcKEzwbiu/Jbsn1I2a1YRxHNus79cus8+5ZXrcj3QY0Oum3gPyap5JWtQ6ch5qm7Ep1nqxyDPbmOyOSeoPEuSPKHlQsVM2CnOQHJMUZtziG3FdkdNqxIYWzgCQ+IDXa+P08GR3o5CH4amH4b+bDKuSzWq6IZTue8fVzpFpiPytVtKajqlc3Kd6LrOgJxWOgERIwy3P6zasBpT7bDE3znnw89g6k03k5twzk+Up/AY7M3B5EjXiF/l3/8RFirk9vbdMKkuFTmaThonV83GzNLJ6Eh1COkpybF1ZeuxBSgWekqojh3JVpw37ExUCfvOm/REgxIR6lMtnG97WHqfivfc2LytV4vqouqzUBzMRyqdYq3MsbMsJV0tPcB0qyEhcS8eeY7LGewW1bOTbTPSJJNVZY8/3l4vVl0OIh6peoDNaiCXcuiPfg6Khb5Vtxo1iQZno1QdYWyOi9449RpMKZ6Axs4GJDn8IlsUWZaFtlQrahP1uGT0ubhi1AXqjljQPE6q5Y1rsbN9F0LG4bk9QpHFG7VveRaNrUJ3NkYWVeOL0z6DgLCpGoT0TZtZyX8r/k6tHuuT9UwM94Vp12CqkKzd3VZyUBOmTDYjZbKvsvVlhDyY7DV0E1Bo9kc/RzQQxub27VhUt8w1YjXVMZzG5JKxuGPuLTi3+lQEg0Hs6dqHHW27xEJvYCqUGyZdjdtP+CbyQ3luaqLK9+PfXtn/hlCzWwRYI4eFTI3aSy5vWM28UI4KzmEXhatLR56P2+Z8DRNLRqPT6sLOtt3YITaP1kwbxhYMx/dP+BquG3cFcvpETllvSjdjcd0KoXVk2DbzfSF9GkEPJhmngR5OJueP/ngPemRROM7peGcMmidAl++WtTkLfqIA7G9P+RFe2vs6VjduFtIoyWR0Myumsa2nBHIuGV6Xi3phzVt4ZsfLKA0VMYj0w+CpD4rb3iQ2g7vXPYDbTviq4lTSunU6v2D4mfjwoJPwzK6XsLtjP7+uKlaG0wedzP1k4fZPV/m/ysn2p/UPYnfbXoQDVJurHGe+dH1XN0hPfHrTDX2wHoypQaEbLYI1LVtx19p78b/TP++m3SkidoVdDfPFgqejN2VUZ0+xJYvYxblpoTr+fuOD2NG5F6MLhgll1VSe5EO911B5XBqPbX8Gl406H1Mov1k1mLJV+iN9R0qpvHTU+b1+f01xMcnaXdnSclXjBvxl82MwdVk6ZwvbXBaI+NK1n2DlX5wtzvCA1h/9X+vM6Ed9Uf+86RGMzB+OS7hrXK4BlaZirw6PkgbvmrVdMEugyttg6Dqun3glMwmSTUmqaRiUV6wzvUsupUKqzl7nk5crS9KbmtITbYrXGTLOS+dnSD21shgeH4hPj/s4BsYqc5uM5ekY6HpxbcWM4YSSlTxVvMLSsaRxz9mvLfqBUPVbhKpfyKErS5XR+YL13S0Tjy+JJ7knrYvug/U9i1ZewEEBrq5sGret+BVMO41LR1/osd60HPGcV7AodVFTdAoSANLBRM6pmWWTcPfJPxBS73ncu+lv2C2kbEumk9P3KIarq3pYyeLg9MxR0k6xS4DL02QciJIwUgL86WyKaUOLowVCdf8Q/t+EyzA4PijnlpRo5eQIp0WlrVRYl4rWdvrPOpuPfH6bsMe/sfiHWNO6AaXcylKlJkJyJPtY7RNYuyU7BHqgV/P1k/cqWmUwhlZhOBBBR7Yd3112J7Z27senx3wcVWzTdbdxXc50rfstktlCEhSO2Uvdyy8ffR47qB7d9jSe2/0idrTtwe7EfvbO5gWiCAlgE6MEAdDprE6CkeKfVAtLIYFEJoksMiiNlGBoUbXYCKbg6vEfEyr2CO/u4TqIHCJFZ8PRvPUfWi5hw/kOJKVf2vM6frr6T9jSthXFwTh7kS0hVU1dyyVc+OPdnSC5iWKtN9Dt7vhS9aAkq647CfA64kZMSFYTd6/9M17fuwRXjr0A04SEHFkwPNc93rNuqQnxioY1qIiWcm8ceVMsZd/lWvEWBKO4auzFfLxZuxwv7VvIzIiU5leXbEZLug2NmTZuiEW5xUSDGjPykB/OZ2fWwFgVhsWHYFb5ZJwq7ObCcGE3u1M6lDSXhpRAT/1lF9YuxaiCaq666YY19bg2UYd1TZvx+PZnudxP0wOIBvNhWJLS1FQMiFIV95daP1XhA9gNe0y/P/q7D3ItjSbTBrlqUyz88nARl4996Y3vCOlVjcllkzEsfwBKQoXMFUvxycZEEza27xCgXoTySBm+N/urOG3QXGaPkF5Z27VhvXvrrMrpfNDY1bYbewVgahONaEu1ISXAmhX/QuIWFwTyUZpXjHIh3UfnV3PlT8/3grKXJUGjApT4fY/QDL6/9Bd4SkjyKaWTMKlkDAbnVSEWyGMVudNKYl+nBOryhpWsbheFS/h6dctkO9bSFEeVY13bmr/K+iZZD/A4HSAj/Hl6L1NrMzNglkreuFM48eaCvE4CHFGu/azpasaObc+xKkrSJhAIMpUKxTjD4nGBkH77kvX479e/hSuErXvduE8ISVui7ptjOzoOHWeHkNJwaMEQPvqsCECZow5hmytJ4VpFj257Fr9ady/WNW9CcahY2J9rsUQA0sx0CVs6xPI+Y2cQJSlqFKAoUAjd0FmKQnmRVdIhcwdbbJMbLsGaP971FvUKVkfU+oWGB7ERcqI6qX26phpPax5GQw15QoWNiqMkKjFGWUOU62srFZHUz3CkSIA5gd+ufQAL9i3Bp8Z+DB8feZ6sLXYEUg8Pre2xe5287gPdDz1ioOSU0r1beO7cNc0bcdfqP+PFva8KyZ9hhkZDnBzSC1FEgVKxgZiQZIu6buTafojvTcTeumlBEfbx9zJsubQ0i6pKFI+UbfiAffdheUxUN3RjetDsz+B73Ac1B022Z/m7pNbd+8hpmiohAzx/l5U5USPK5N+bWrbhu2/9XNiBz+GqcRdiTuXxKAwVuMkSyOG1Bzztbql+Ghzvst7LX+Ug7/Cm1m14cMuTeGHPAuxPNSCsBVAczkNul1Ccx7ba5XX1bsr4tlXbDXl9uWQQzfFhOklztr/M+ihZnUliSudAjz9avnQ9NKaG9jbmh/ZO5okn5kqSND8UR1rYgKsa1uLLr63B+PKxOH/IfJxQOYOdRHmyvX0vn2DAw3XmcSg6Z+Qe7+7Yi7XNW/Ds7pfx6r430JWhrnYB5BsRLnWTLUHsd7SQtPc4R/54V6lqeSc94Jk501eFjzUzWGNvrh0k2OjCdtyGRXWrUSxs4DlVs9i7TCV1Q+ODUB4tRpHHs4tefDjE39SQasLe9hrsbNuH9W2bhKq9GBtatgv1PIQ8I87lbVR6m1WNt3XLOuRNsPzRLxXY0Xq7hW644Zc6/HEs6EEs1Zw7Z1HeEiKhQmSFtP33nlfx8I5nEA/EMLxgKKqiFagUtmSxAGxID3ObSdJSKcaatDPozHSgvrMFdckG7GjbjbpEHYhutiBYwOEiSzOVgmxwyEmnrm+Gsod9jfVoDAeLrnQNeH7xwXrModVU1qUjJk32CJOcJSlaFCxkb+zejn3Y1rKDM6bSRPVpgT2ybEMy4HWWlhQqCgYC/HNArNJNvMgaQoKaKmFBINzUdQQdNjcfqMcKWK2AR+Q6f8z483SMqMGUgST5YlQKofLgktSzdI5lEnVoTKjFJGFt6eGR8UyVaijVaak8kSPL1FUmr+2EAHROXCD3E703qb0BTXOafrgZSr6ZecRHpgdg3QCAoxvTkfYJg48dZxVzGKnEeE15WHVVwG1qqt+pir9yzNRShQIOIG25F8tCeJKyhgKqpnjSmF/G7cYuCwksZoHgRlPMhObficN7l3sdaQ8mu2UwOZ4nQnNSz/Gt+ffp6MPVlYy5jF3neVVro6LkTvqidoCLUPekNtpuQTy39nClbi4XmJtm2Wov9/ftI2DuyIO0KNpSdZmtllR4tHqTrBmF5i437cy/U/7wx+HHquaUF5reisouhceM84zucS7Rk8SI1WFr4qFu+h57f/jjSGhPbK6Yro/A5n5A6FB4dKSr7ZWsWfXHtnTKMN2Ea3/4wx+HWQvWFBuHHEnKhBE4VHjMeiUrekjWlpumXJ0uMuJcg+gPf/jjcEtWmxk2SLbGjXx8a9YXSP1t6SFZu4E1q3TkjvHlo5NUNcKeQH/4wx+HH7CU2kn1xwJ3kwX+lBqcxjuEbgjJCdPOJDUm7/In0R/+OOxqMIfHspy8QspwwkwRWBMKj2ZPNdixWemkTgOBDrs7m5c//OGPwyRTHeYM2QuM4+okVTsVHg+wWaGeJDR3aFqg1WRuWl+0+sMfh1muwiaOKsouE9psxuKYd6tSgxPwpP/2pgZ3xAPR+oHhUrermD/84Y/DKVstzuEmR9OwcCUiergeudCN2ZtkNZVB21kUKWj44rTrMkRV6Q9/+OMwy1ZNkrMmzS7cPOvzmfxwvEGpwU7KIXqC1VZ/7BAYb4uHYp1+jrA//HEEJCs3+ZKkAXnBvE5Nxlgdb7DdG1gtJXYpzak1bWc6Etk0J42/HxULf7z/lcMj/15HZ91Qei91XujIJNFpJQikrQqHKXjIIHrSumTUSU1V4bKGqmjl4JSd5MRiXWUmWirT4mB8T7btUGtaKq3cRlumDW3pTm4OTiVa5XkliGhRLoomDtz6RDMsorYUL6Pi6vJIkUw+VyVf9C5Z8fearho21nUtyMXY1AypM9OJhmSL+jSo8i+nR6rsF0rfx9JyqZnCbkBFtIy1EHpdfVcj14ra7k21e5Dqy2oVeh/DCIjPLne/I3nmed74Q8QE22l0iWtKCjNDkp3pTGEaNsKIB/MQMSKyR6frkaf30DihrKarHlk7m3NOAO53cSjRaF6Iqb8wVIQQUYFCUoLqXJ2Tlaz6qpiHGP8bkq1ioXS434zaV5blFXE7R1v1kKVzW9PyHjkcTpbzefA21PLeZ6AgFENxuIhJxvcl6sUUZXkuCoP5KAoXyPcgPmGH+V+9tj3bjGQ6K+tz1f3RdJI8EcQM6g4f4c4CRDljqXmimt2uTBd/H+60p8nvUhopUI33ZMkhsW50ZTtRK9YEfWJYD6FErCcCjKUoWY+kb5WTHOwMhsYHojxcSipwk8JhBj1oXbxgzSpduXF00Yj9nx738Wm3rfglivMKebHQ7BuaU3CF99SBmwK/uuYQ9BEboCk+VMPF1Wfh9KHz+QZ3pttx99oHsLVjNxPODs8biO8c92UUhvMZrFubtuGX6+5VjY4MLjMh+7pIAPzHs7/Bk51MJ/Hr9X/G6rZtmFsyFddM+qS6alPR7ulqkajvwY9zlSc7W3fjrjV/RFos7oAWwm0nfB0D45XwEm5rquGLs1g1Wy7Z5mQb7lj1a3RYKTHBhqTgFCMpNh0zm8X4/BE4dcg8jC0ZLRcGXa9YZJsbt+BfNa9jRfM6VIYrFI9vVm6U1KTKSuOOOd9EebRMqU82L1inqkYVwXFfnLX1G3Df1kfRaibEBhCVi9eG6oqjmBjFoz1ic/vkqAtxxpBT3Lu5aN9b+PWmB1AZKeYSvYyYA2qQdcnQM3Fa9YcVWE3VSkNX18HMTy5RuAPWV/e+jr9veVKsoWL8au73UBTK53l+ftfLeHzHC0zBSl3TndKTjNDmUraJCwefiSnlEzEgf6Dsti4+q0NsFotqlmNh7ZvYl2xgjiqLAWYzs0VzugOzy6bjqrGXQlf02K/vW4I/bn5YbBjFMlFeXHdTugszyyfjZ+M/yYJiT/te/Hb939GSbUJQCAjNNf+OkKQV362xqxlfP/F6VOcPofZ8jQqH2XcCK30biu206prWWBkrz2TNdFC3DLl70cJyOHk0vKfyKVpM3OlETJzJEkV8pGljetFUnD54nnslf938JFJisRMFZkEgjkuGn5Pj/Bo0D7va9uLBXU8jX+zQtCknxXXRjnvm0FPcz3pw6z+RTHVhaGyQeO+5/brOxpJ63LX6D+LSxAYldihqW0F9VPs2+cDP1vxOICOpmAdtpIWKExW7/A2TP4GPjDgD5bHyA183/Axc3nkJ7lv/EP6y9TFuPhwSi9nm+lKbr+WC6jPJrnnXSzhn2KmYN+hE3LL0DgHI/UJqU4aMyRzFlmphkRCgHhgqx7WjLsW48jHua6cUjsHTu55HY7YDeXqEUZfNZDCzbGq/5zEtAPTHDY+gTA/gYyPOdnvhNHbU4eGtTyMQMJjl0TYNdFmdmFE4HjdOuxazyqchFDywcfT5w87A/kQdfrLiN3hw+5NCIhbLTVt8n85sEoOiA3DmsJPd8+eWz8RasQm+2bhKADafi/Y7swlUhStxhvoute11+NPGh4QmYYt7dKQ78WjcbCwrtK3yaHlGrJdGpQYnvZ7gnmB1PMIpZdw2dWa72hPIlLD6JGxdTUgxWzEXQNPf67UpyIrd2LS4Exr0jFDDWt1TmhNNQqVNczsKihFnxPQ1dNWiLL/SrbG9YsxFeGz3v1glDPB7aJzLzL+Lm9eWaEPKNLlVRUu6FXs6aliaSIZbCwXBmKT1pC8tgN6QbBSbQ1rSg4oZ29C4kb8jbRbEntCYbFJgtdCSakNrqoNVSE2xKsh6UtrIDNSKhSh5jKS6nxSbTkSoWneccDPmD821eiTm/GYhLQJCDAyIVrGEGRCrwFdmfg6DhUr0g5V3sfqoC6BJbl4NdYlGVAuwEoCJzb8h2SznU1wHNSvOD8ZRrDaV2QOOwzcmX48vLv6uuGVS1ba547rB0oM6rs8cMAdDCwa7uzXNbVleGYPlbzufQjQvzBwxNI87OveJedzvbtS0ERHnE/XZYc1BSMWmVJP47or2VJywTWyqlEJHbBS1wpSpzCuVaq6QbtRxlFpD6uL8pkw7Tio7DnecdAuq8qvcOaKesW3CZAiLcwfkVTIx+pD8QfixOI8++w+b/sGmg2GEeP5SAvB21oQWkDt7NJyHS0edi9drFyMbjgnNMIAAr+ZcpKNB3FtJpRwQ154lMuQcQ8Zhh6pckylhHnSkO9uVCuwN2+DtwGopRNPJdeOioxqrA4NKUuIpasPALTdJ5TGk7aW9p4uzuL+obUupanNpkN6NQU+3A9zjxbFFqe2g6aHPpDG5dByuGnExfrHxT8I+LFOd1NQkq+ZJBJSguLmLG1bj7Kc+JdO6xHulxCL/0vhr8LlpV/G5jV1NuP6Vr+LNpvXCjsp3r5Rs54AeVCqu5vrkfrnmL7hj5d0CUFX8vKn6sBq25hoIukH90oIszUj1/cpxN3QDKvW/+dHye7C6dYOw6/JwesU8XDnhMqH6SQl3+bgLsLhmGf5ds0CoZs4Wm+s+R9/ttb2LcP1rX0PQiArJGeRFXS1MBlI3J5aP5/PmDTkeJ22bgReF6hgJhNTisJBRdeUzK6ciL5znUfpIkzBwQuVx+Pv2f7JaSzY4bSj3bXkMf976CEt5krSk1fxw5tdw6nApoZbVrsRNb9wqJHI7f5ZkmdH4/Qkkuje6oEnCcdr7m4X9WCrU1JuPu7EbUB/c+E/cv+VRrGxbjzKjBB8ffhaunfxJIU1LxPUE8PXpN2Bz8xYsaFiBAuL+Y1uc7pfebbWcN+zDeEqo3E/vf1VI3nK5kXSLdEjTQGdTSHfZNY5EPx6bzaMURodHYWR0JEnVOoW/JHowjeq9gDWj9OW64wdPrTl35Km8WzLrHdt2Ou/S73nfsWVPUalWB13bzzt1lmYpgMg+KZZu5wjonUkWT3xs1EcwMFiODmGXkS1s66b7PjrDWzpidHakaKwC6uK9A1B7g+ZsDuBOZ2TnUBc2sss5SE3OGdtSvUe9k6bLxccpYgGxkRlSFaNKf0OXNpgtmfmbhfScXz4Dl47+qPv6l3YuwFUvfVHY0xtYupOi8vvt/8CX3vgW90l1xk3TP8OSkCSVob6T7VlkNG8hYU8TEz79KwwVYlXbRvxm/QPKoSK+jxHGhKJxwu5MyWtSJGoJIdmo0dTZA3Mq48aGTby5sPoowDqtcAI3zNIVcRtfA0lJWtCGM4+566G90GDTBswNpdN16RbPnRmwu6mXNvNIUU8gixtfnTv0w5hQMc79+1/WP4gbF30XW9t3oyRYiIQQNHeu/wtuXngbn8/tNYNhYW9fgjLxvS07rXrDdr8mGpFQDJeOPA9xRITqL/Q09nXonnmUVS/cMlOX/hRbO1INFTXWji4ZezqmDhxbo8DaCU+1TV/A2ijep0Y3dLMzkxY3QbVB4J/v3Rtsc8Iy5C5mq34oWk+GeIv7xVB/Bss2ldZlq51Iw5t7l/HjkSXDcM34y9CVTPJC1jyShz1smlRpydNIn2GYst8pOSW84CMmQCISM5QtJ5Q+/r+pSdWTCxq85YLkhVTM8wxQRYRNizlgae7N51iYsFVPH36KAI1UYpqFWnfbW3eyNC4MxaWnV3zGkNgA7BNq5udeuRk/XnmPkNz34E+bHxbqnNjQ6Jp57oxu5of0QLNSy6pbQJERmh5AW0KFr0/Wic1Idzs4c2pbJoUR+UMwvFR2rEsLFfanq36L2q4G/n1Y4TAMLxmOVmFCkKnCxoNh8gcYlsbediZz07rbULa3swdvxAZvurbdo5EAqeTixKzQOoaGK3D2oHnun/Z11OKedX9FabSY/QWEHtqU8oQa+0rNW3hp+2vux84dcgIKIoVCjTR5bkw19zRahCm0bP9KfnzasFNwrpCwiWynjAHo3SUrbyjKpCFyOm4ifQRsV9o4u9IJ6gxP01fjcS69K1g1NecJZeTuOX/YaS3TiscJG6NT2nxM8KO957r0nAfZ5gnTVI9PS+veR1B2B9dZGspGxQ6hF/DY9mexona1VBfHXIgpRWPQTKEHW3c3Ec3psG3JFoy6rXrF2NLO9N4rqZBJag25eUDeMFu2K6TvrHmuLy2kX5uQ5l1iwSeE6tllisNKoDObEb+nlNfcEDZcEsOiAzCpaIL72jVNG7ChczuKhDRwvAcZkp5iMzAEMB/d9Sy+9+bPcevSn+HO1X9gkm9pddjszewWGBefQyGILjPJza6og9yw6CB8avQFLqb3d9XjudqFCBkR9f10DnEVhgtw1qD5wp6Um8iq2rVY2bwRy+rWOqsIpw6cg4pwKVICyJYtNwbpv5Bkam4fWeTmXDa6knOtq/aXBB7D6i6p6L7SXzN2AoUCbEPiQ92/rRDXQvPLJpDazEkuh4Vq3Zpux7/3LXDPjQmpOSxvgGzo7EhVda9as224f8MjaOls4c3ymjGXooq+j5grr7RxilZYu3LI47RDr+5yOI43cYc5kvwG7ThRaDEXDjuL6lf3KNwlFA61d7JZvckRlEWx54SKaXUjCoeUbm/fy3SXHKpQeYzvbd/RXZsl1wvFo956JtABtrwJueuuTdTjvk0PYVrlZBRFC/EpAdjVb25QPUltN2yQa1Sco9O0VcyuewaJw/bnaS+iKRZBd85yL7ph4qdw2ciPCFsxIGOrbqtEaWVTFzhiuc/YWQwoHI7icIH72j2t+wRwQipGKFVbcnbpLL0sVmU5hEQxZfGPPJwc7tLlnHmWGOYNmoUXLnxQOew0ZG3pOCNOYBr1Qkr+csU9aEg1o8DIY+2ATIyUnWHb7aSB0913W1K/nJ1Xb9WvwLnDT5XSaOBc/Cn/IWxo3YpQKOhGczWnkVaPFZBrlGy7CzQ3p93XC0l8eo+sAHg4GBJzFHf/tr1tuzghy3FPG3AbbemmbH61P9PU7XNHxauxpGE1ejaUzwtEsKJxndjcn8N/TboUUwdMxhmD52PT+j+L26b1Cik3gq4d2joW6UaxWP1m+a3uZXu2C2OLR2Ji6dg6Bda2nskQbwdWh4+J0pzIM9Ug7kxN2jLHp+1UjuxOqa9HLnDcnWKG7LB/7X0Dr+9ZjJMGn4ALR5yNP295DI3pZpfaz2EEPByjPFrCx9uNeDDCQW5WF902inJkzayUQGwjWQzSX598G0YVVruJBk6SA/VGvfC56zgBgDYh2/KwDYr5iAXjGF0Yf9vr+N26B/Cg0EKiQn2UbjwTsg+OhgmFozCkcKh71xc1rRTz14o3G9cgkerk1xTHisV5o7G5dbtXb3Nj1drBkHTpmtqwyRbWuVWkM1JCU+AOezwLunT12NIxydF502Swy/gs2FPc25UEyTkoTrl3y0NCDT4Rg/OH4qpxl+CvWx9HxjrSXPa2NAcowmBl5b2n9WCluL+QUoEbFO7S6NHn5u0kqzc5grawnceXTU2+VbcyQq0YDC2Ao5Ez7N3FyfNJsbZ/bH+GwRoJ5+G6sZfip2v/yP1OA9Q7VD98DoItbTuxo22XUMuiyj6yVTBKSugWYTKExDWmBWA1rUfqiCZDR+xmM2U+6LjCEYh4mkw5g7J8ZBdyJd27qW42GrtasK5lIxxzNCjuzeSisYhHpEf7C1OuE3ZbM57c+6rssEjhHfGPMsDOHXya+15v7F2CV/YuRmuqDW/WrMQLu17HeaPP4L+dMWgOXqhdgDRtMpr0sWY16Tw7qGVgS9ODtAvTJCcT4MxA1IgLlTTIGwzrG5p0jEkmVVPcX80FKoeMhCB5Oz2vIBTHgoaleHbnK7h20pUYWTwcHx9xDjZ37j6yULXl9wgwF7M0tzLCXi+NlOLEsmmE1p0KbwckQ7wTWIFcIToF8bZ/cuxFDc/ufWXwFqHa5ZOaRrueyvg5IkDtQWBMC5iyV57Z+xLO3TEfp1d/COePOhuLG1a5uoOt7M3DIVx/v+5+3P7Wz1ARH+K2QOTsIV3azOXRIkQpmUBIC2oCVZ9sEOdK1bQ0XoqOVAJFsXzJEyvO/y05U2KlQiVqx9j4CJwiAELfl2LGknRbqcy2tN8cO3tRzZv4xPM3AiEKEgkJJL78taMvw62zvyzAHxH2XFRoHefgmf2vSXBwjNxCsZi7aZWTcptfKITrxl/O4SbbzKAgmu8GXWdUTRfmTz72Z+sRZHvf4ri29BofVM6pjB2LOaP4bGuyGYXRGP9pTHE1rIDUPmTOldQ2LEhpOjCvsttbrRNqesbqnY2TNJsCsWZ/v/EfOG3IPFQLDeYTYy/GXzY9fGSFjW6z05RtfyV6OoQKPLV8HK6deAVJ1O0Kb07BOfoCVruH3VoTMSJ7xDGYvaoUNNYcH+aRysayu+2cFKKhbmc1iVrcLyZ9/qATERR2z+cmfILje044RrcPJUFj7o2KhMQri1UJ27BMeQ918uapxsEqpU/MYJ6Qrls7dmJF02ZMLJvIrz2+fBqmFY7HtsRuxAWYbAGe7624k7O12tr34uszvopTBs/xrGeLVSeO5Vp2txRPymmtilcI2znCSQutWXK+vILLG87D9AFT+Zz8vHwVbNLYQsiIz/tw5WwMUvFMmtUZFdP46Om4oE8qySvGOcJ2vX/bE0I6y4RGx/Y/mM3a6RlLqir5IFY2rcLQYpmcMaNiCgaFy7A9WSNURooMiM0hYDOoS0IlOHfIqe777G+txe7OmgN3dDc2bnN7kY1tO/D3zU/hf2feIDaDkfjshCuPuG4oZYfsU6vz9xL7rNAgxPreo9Rgr71qv423p1cnU1q9uD4/FNty5ehL0oXhIgF5UyaoH8kCBVvrZm6z91h8l4HRgXipbhEe2vGsDDcUDWMvrBvWeE/Zy+/kz1PeYIGiZCbNMTtKCUxlU6zSZMVzyazJOcCW+vRIKA9L9i8TtqpsIVSWV4JvzPgcYlqYs6Do3JJwMadKnj/iInxl6ucO2B+Y6cNWQMGBjjibc2dtThQIisWQMHPZOfmhAtVaAyq/OIX5Q2b3sgX1tjDkZ80fdBLHT1lr11XyAA6OBF5T7UDCWgi1qUb2Qbibodggbpx8tVCPU+y5TgjzK0FFDxSPHTQfJw06Hk4g+aX9b3CBAYG+t00eSiIPig/A38SGs0yo+TRPQwuHHGE1WKq/uiZ1hIyAV2mkCNdPuCot1uwWwpnCWxpv03Y18A4rk/ScLsduHVs0tC6oBQenyD7wND3q77Cc7GAbyKXAH7gL6ZYTXZWGePdVJb2SgYC4fNPAfZsexZmDT0axUD9d/U1TYQT73W1gS0luGR+VX596vbBVZclF5bXPCgNxTuqvipZ6ktdlywlThba60l1cMVIaKsJTe17AmbtPxjnV0k780JCTcO8pP8HPVv8B69u3CqDGcd3Ij+FjY85Dcby4e5hLxVJzMUqtW5yV50lXUs6SaqXhicUGxT/OpBNoJdtuQnw4pigpT+PhLU/i+yvvYtVSevg11HTW4vqJn8S1E67gc8aVjcHw+CBs6twp1NAgb5ayuKD7PHJKiioY4Aw3zc51weut9a+KTxeGYvj33gV4fterOG2oTNI4Z/hpKAjk4U8bH8aKto0oE9rMpcM/ypldjr26v60O9219BO1WgvPHNfX+GnmVZHtZCVhKdhFPtKVb8FexVqZXTlHmhVoqkKFDTsbRVIWPfWhpjTSZu6eSfcCpsUYoiNFFw+o89moXeuQD9wWsjnQl/ZniP/sHxQbunl42fvCCmiVyEVnv1X+jgKrbSi2QSQu650Zqyp5xwjcy20TvZsQ6ntPiYAHWNW/CI1uewjWTP+GexxUW9tvnRHqTLh170HJSzRw1T8V/bN32qNM2bphyFT4z+ZNuOwMZzlC9TCm4bpr41qIf4sk9CxClFotCHf75yt+iKFSMOQNn8CumVk3G7yru4JaNFBgP6VJ939u+j1XailhlLmzhXNQBi8fOxRfFh4cEkJrT7ahPNXpisSZSZpe4hhjahSQ/oXomV6CwY0JoAS/vWYxtbTvRKf7Gdr4AAiVRvL5vGa4e83EY4vopJjt/wElYuX69kNTFUuXPQmVZo1sGk5PtJR1jcnlabtax3sNktTk7LU+PoTnVgh8u/xWqIuWYVDFeJTzMwezBJ7AHnco0yWnnDMqr/vqSH2Bl4zquQpLXoiSprvr5qFgvtbMknTNfaDnP1b7+/9m7EjC5qip97nu1dnX1vmbp7vSWpEma7EACkkDABESWAIqAHyMO6ijgOArDiIAzKqMofjCKzOc4ysyozDgT9RMZthBUlpCQkIRsDU1oQpbe9679vTv33Htu1UvLZG06Xel3+C5d6a6urnrv/vds/zkHVu97ES6oPi99XVV2iVMeWQ3lgjEOT3KdJxcmfYpy0eeUi3sRyMdI1yHCWQyOMMzcOApYk6SaO4oCBa3LK5dGrZTSQMYJfhKDQv6M66CyLYET9mVSIQWhQrG5fGKjpci8Y2LzlqR/HhQmoyTAUY4zxxeAx95cC32RTDFAOJgvXwNJ+u934Qp9mdxnaW6p2OiKWog3OpMDzeRsp+ZUpM9IZEEFxGtjvtQvl1+CDR/j16A3CGFvSB4JqPh84t/vCf/6Sy99HX6++9dwcLBdvhLmEQP0uyhv9e2F6567TZaBoUwXfrFF2k4eHJYw50Jl6fddFiiCFKbUbDWuEYHbK7RHgmeOoqm5FXBpxQoYSkYgJEBx3cwrZepIbvjkIGzo2gwVOaUQFNcwxx+EXPF+cDDzrr7dwpfsTr/OtTOvkPNgU1jQwRQlFLVPWSBzXypCJZkDzLCdFAi5OctyShx+f366FhfplEW+fGiLHoQvvnwf/PebT0B/pF9pE+HWBDz+NFBHohHY0rkDPvvHv4VnD70AZcFyxTbCayBAnSOupU4D4QxbL7G/ZNZavIeocFV+0vL4YVZKhXhfSEcFKnFklJ4c+3yGKTW9R+xJLjTrqmkromFvLprAHYSz5JHA6jmKk2ZRKBnt6baa0PSDRb6Cun4+IhxjRsXVx6lX0wl1SmNgykH864VDL8GgeF28ZtF4VPgxXZCDiXzxM9yAD23/CeQi4Vw8oWVwr2T2aOK5T/ggXck+uHfTA0JjzZEXOpZMyc0W8vx5SgRTHM+3vwLDLC43XiQWhc54r/QbGbWm4qDHLKoL/ciun0GJAIfSvoqDqk0aTs4jo3FuGDTaIbS9aSqQIfAR0IOpQfjqa9+G5rdnwdKKs8QhUawYLWK1DewT12AD7Bxshd8f+IP4PAOS3eJjHsUUYqqo/aHt/yo3Icrb/W1iEwdlrhb/PrKVkTT/m33PQ7/QsKhp0If3Yd5XPK4UPtIT7z4N4UN50mxu6WuV/mKJv0jmLbVFEfAEoAdrcrc+Ck0lM1UvW1v4WL4wHBLPtyW10pS5yp/v/S3U9m2V921f/wFJuPDKQg2QFEg0cz2MSzbXw+IeYnkfvt5GcSD5xDVRGSUs/zMk6WZ/vBNue+UeuKDiHGgqboTy3DJFYBCHw3AyCtvad8Lm7u0wJLZlRbBSnF+ptMmbJw7gluE2+Jddv5T3LmbFoCPZL8DLFFVWPDEoDtRdA3vh7zc+CFPDU6Te7xrulsErZHNJ/14qo7El8WviTcpUsC33lkJ5oPgg4orwNXIkE5gsTn40uhEiZoZYi1N26to7X77/ot/se9pAzXEi4RtlcdjUfYClrfm++IAA5ZDcMKb4/hRxuvtYELhpycLn9ni3SoaLVygTvmJIbFLlk6L2MuWm6BaAG04Mq2nf4saUo8ZALTzqlMS/2CduYr8Ag/JIDaEVSoWW84JtKYaOlfap1AF8YOQgJGyLzCYF1hQFSjCypyqHLHUyi42HpAks3eJ2Up2qktfLJShGrCgMx0YgLn6GAMerkeP1QEj4ZUVidUd6oVeYpYbHgGqh0blyAOXNeG+4A1LI1MIopzdXALBUkuFlWkN8DwMtPdF+WXqnLYQ8fxhKhKWREH+7c6Rbkg7wUwcFKJHtxC2bzEeQaTnpp4uDoTPaDtFEVF0AcW0qhbkZFIcHPh3fN/7dHgFepFhyGZ32i2teRH68yisa5LAgwN8Tr4c5VfwcSDEs9uTLTiBoFpo8M7cSP9uAuDfI3sJSSTzhmaHKD3OFKRsW/qmX+cA2NPNNaXFTHPuD1oi4fl2UFvIIrVkGAaRU2hRPkAqUiYO8Q1yHpPx3kPllfbFJXTXwueoAHOO8H7l/eJDe0nidfdfCLzwr9g9S0DZR6iZyJM16NLDKDIFYmNiaK9aql9o3f+zOV/6hFP/g+0XgjuUN4w0ytB8qnXomrQ5T15tyR1UMT48Bdjjqdjo4wR2WvG7Rgt+XJHxmHDFGIBkkTAHNIK6rbfA024RRFwagogPZFQF0M5r06HC5MWWAXIDZNpRWMbhq5WLIaAKXkVRGXRUUIUtsWov8Te3/Y+BEHEiYIlH1q2a6ZYn8sU2dIZieXs4UuLiRLl80OEv/XH4SvNYWfVh5nZXJbEoGlUmtWbTnrQiWSivy9CRXGXjCyhvJI+agp6pwIzPfNUXXyqD0ki5H1G139MaXl4O+Z1JqjTtzyIysFFlFRaVsLOPoqiCeqe42XjjbSMcM1N7itC9YmnGnOCXqMNIa1sajVtYrs3QVGKOdxvgHM50Y920qFYcpQqM/eM69XXOLZ/2n+DamMt4gUzh+NM15NEkR4mXidl5JU1tVeJosnTqRz5Ke0E1juXl6wC9dYLzYTG8g6vrGzYwbneYMMwVUTVsD1dpDR0llXyObHTkbxDObxqCbxjRBPe2v2qpkytDJDCYfy2njtkGgVua9jZFX2lu6mYZF5rRuvCIPKfw926BNy2lTMdUryVA1WkJHwmGcZK5KBeVGtg0qNAAdzswQ5ZGlJPPh9HviuVi2J6+VrSs3Gdi64pMOFYp5y4NHB/9Mm6X9StRSBlcpIlVtI0OaoPlbwNR1pFdJkzA4aVWuO9+Sa6FrW9VzKYrMbDqkuAS5+j2eJmFKwMlobUq1peGqywJPT5Mmbi9VQzF9aGIcQldVyRtkp/eQTWkv7IDCbOrHNeZpSSLui0NmIBGBpoJG5AK3kTbtJnwdlf9oHNOBkIkKHwgY/r1N4dmSzGgRD9d2pD/4UcJo0lxxRHdlGkAHndKJbNpSVCljMD1kwCRLSZ3o8lk2AQwUQJnDR+BHUKs6wGryw4sFiM0Lmo+s/1b676E+sonMzjIVG3gwMJZuLwaavpApu2Np7cHSpXeUAiH+sEF1wvKgIZAa3Mj8bXkwOMrSWJrukImcy98x09dTNY+mtmaMwOJQVkbaBGXpxmja6uFkRrN0ylU1ztNT0Z3X27QzxRI6h6ryw6Y0iw2WOQDT74cCjgZTN5lxI1O8wal+ljHqJqHfN/3d9D7R78fxGTg77HuycUy6rZLh2EM8nR7T3AHmPARPMJ9qpcs0VeEE5zp7Ycn4Sn2oJiY+wV7E07FEgY8HrOAgSLSbhrHnmsZLDpZ6CyASj6j6RibjXMT3BHe0vSuTV6giTfcsU6WZhrSYBmMDUJ07FdY0XIKBpT0O1lLimDIpxxgT0gQJjFq1VudV7l5dt9JOyVOEuubp0xb4ETWaK66c1iIjyaqcz7TJ8hIoSwpfFVvMXl63yi4Ple5GHBGeIkeLAh+vZtWN1JQpbAZ2fKR6RScyT6Ky3tJQKQ1mOfDtiiuTU7Nayr9Qnja6UJYtwBqFkkAx9oPqNJmxw2EC/1ljtJMFqzaF8RRAesxbzUVNu6+svghsKyVtcUMHIrgKurjiyqRUrE6imaFCWNiEwDZ9cFXdaqgOT0et+hbhKHKsJvDxgpXTKYBlPPv9pn/HeVOW9hYFi1Tej2uWiOXeMVcmsdiZJKOlQq5JZMAFS2FpxcJer+FFrbqfcBQ/HjP0eFUgZvixkh1zQi0XTlu259zyRZCyVa2sJJIw5hrBrkxakWNOOHGBiVyDY19WTj0Lzi5bgEGlFsLPEOEJPgiwOjv246mwT6zta+ou7c3z59H8FU3Oc8WVyeqzUspQLlO6iRXhUlhddTFW1Wwn3Ogi8+Oq4D9ezcod2hXDz7vOrVy8c3HZPG6nW4q6mtWVSeyzGjTzAYOu1Nni3MpFfFFZM7aN3EW40Vr1uKByIpEgGzKMprfF2va5phs60FWVHFnOXbC6Mnk9Vtsksg3IWE6+Lww31V+DZu82wotmLB13Wc+JgJWP8l13NxfP3nlZ1fl2fyJC/ehcuLoyOcXUxfc4ydxOwKqq5XZjQR1q1d2jfFU+HmDV2hXLMTD83Ia2+A2zrm03PSYkkIDNXa/VlUlqBjNVKIDpmpA3Bz5Wd1k7+apthJfoiWjVkwGr1q5IlcIq911zi2Zuvb7+ChtnXXoMF6yuTFawqqjNoZEOuL72Krsxv24r+aqHIFNgzscTrCh6zIZuo7jpxtqr357qr5Qj9Mx0yZJ+OqPRG66J7Eq2IzIzd0m1HNJ9/FWf4854N0wNTIFray9FH1XXqnZDZiwGjDdY8R0j+wJ7qSB1amd9UdXGh8//eqwgUAhDqSjVhjIHUF1xJftFlkPKFrFJWRerq2ywiB7pt5WhKfDIim/Gagqmb0RcED4GCC/8VIBV+66YL5IdEMXavHL6uTtxEO9gYlBVnNopAdoUDeLRp5ArrmSvpLuccDUHlkGSpgtw6I0PwZKieZiuQZBuhkznwmMqg/sgweoctYFqHjmPG26f+xfd1bnTIJaIqwlutuoaZ4Gb1nHldABrupJWTUm3VFuhaCoB9XnT4UvzbkIsbCA8dMMRRmKMJ1g1YNMVOWJtn1M0c8uq8pXWMI/SAGbdZ9hw9aor2e+yAnXI4ECPVEeQodQwXDXlUqs+vxYHCG+HwytrTlpPjRVYdRfETnKmX71t4Y0t5089C2I8olowymp/l+Tvymngs0J6BKyq3xa2cMyKwMVVH4LPLLgeub+vEg70FHNrooBVi07lYNPiHUWBwg1fafqr7mREaH8jpaacMuZqVleyXmSvKdmbCzkFqiWuHbfg7jNv78715qD5u4NwoFM1YyJjBVY9GyEGGRrixpkFtRtvmLUm3hXroabgNL6P6clrmYkpLo/ClexxWg2VpKH2sIci7XBz0w3x6aFKjP5uhAytUAeV+EQCqxZUoMOk/t8K+vwvf+3s2/dcM+Oj0I99bMEmkDLVMVBPh+PcTb+6kkVOKw3qEP/rjffDp2ZdB3cs+cwev9eL07Xeov0/DCeRUx0PsOIpkiL1j871Di/zvPiNJV/pmJvfAF3RHhn29qg20DTHRXe+d/OwrmSJz2qoopVDI51wdul8+NaSOzsMMF4k8/cA7f8UwNhu6g+i/4o2h5EHiTmm13K9oZcvq7444TG8MGSPgG2nVKtIGgalYmquHexKlljBAjY4CDnHG4KPzrg4IVQNatTXaL/3wBjkVMcLrJo3jFGwDjIL/nTLnOu33Dr3JtkzOMnUSAlsemxqi565YHUlSzSrlQSPxwdfXXgrXN94JaZp/kT7vIP2/Qnzf48kng8IrDr3iuYA9pvBeTmlf9P8mZLeaH/92neeApzEgBG1TANrdxO4kh0Sty34y9kfh0/P+hi2E11P5u9+OHxy+ZjLB9mG0ElFxDD2FoOxdWtqVx8q8hXIEiKmg0wMXG6TK9kBVCsB5cFSuKLmw1hFsw73Ne3vMaEUniqwOgGLzYwxnL1hYWnzn748/7MDXoHUeDJG09cM1wx2ZUIJJ3OPBn7IFRV+Kg5kvnvhbQO1+dVo+m6gfd31QQN1PMDq5A5jOLuVMfbymtpVm74y77NJZjI51VpNinM1qysTR5h25nBMJ7MgYcch5AvD3y28PXnx9PM2GczAoFIrZFhKJ839PdVg1YA9rJROrBdubFiz7ZaZn4SBxJAwiZPgVuO4MqE0K9AkPqFicY5rRKy/nnszXF59EfZSegHGsPRtIoFVAxYdb2R1tIEqHXrqmhmX7WkMNUBvbJBmobriysQxg7npkRu3PzkC8/LPgI9MuxD7/j5F+7eN9nMcxonSM55gTTkAiyTnjVPzSp/4wfJ73qkJlsFQbMTVrq5MHDNYVpjbEEkNw5y8enhg6V3vFOTkPwGKTviOA6ip0w2sTsCmp9GJ9WpTceNTP1z+7QOl/mJxYaLuLnFlwqhWDIBW5VTCw8vuO1BfWI0a9VU4fPrbuAF1vMGKgtEydFCHIRMhfmVB6dznHv7QfR1F/nwYFiaH4UaGXTmVWlXsvxFrGEpDpfDdZfd2CIXyHO5TyER+h2kfjytH9lSMexvd1R/r/15aUjZ//feW3dMd8gShO9YHzGC6LxUAEf9tmjSuH7viygkDUipPmwpJ1La06Qdd0V4o9BfA98/5Wvf8kjlIeniJ9ukJd9PPVrBqwOpp6sj8wMja+qXlC9f/aPl3BnxGAA5FusE0mLqYTHWNk3xim8uvBlcj4V1x5cQ2II4nZTKwaVPrXI/QqB0j3RD25sKj598/sKisGYG6nvanZigl4BTViLFTvOHxsAiIVShWlVjNYl20uXPHxdc99/lwnMfkCceRlojdJuDwEBSnk9ANJLtyooAFOfKYgSk1qgCqJw8e//APh5qLZj8jfvgs/PkwqVNWHsYmgHbCBnF+sQrEmi7WXLFWbe/etfLmP96Rj93iwp5AmnBsMjIGcK6OLK9zwerKiZt3cjSjeIBVNMWBfHhsxUMDswrr0EfFgNIboKiExzWh/HQzg51iQ2ZIs2wJI9YzzSVNz/zzh77VXR2qhFgqqT1/sOQsEe7SE10ZA79VnfJRKw414Sp47IKHugVQUaM+A5nWLHro8SkvuJ4IYNUtYRLgmPsq1roFJc3rHlj21fbq3HKIxCNoBshIneVSE105aaAqrTqUHJbtQ39w7n3tswrqkJi/bpTpm4AxbM2S7WAdDdh+OtHQBHl+YfHcZ+9feteBmrxp0BPpg6SdlHZzuqkpaVjueCmXaezK6M2V2RlKYmIfdYn9NLugAb637N4Dswob0D99fpTpO2GAOlF81tEHntOHnSrWTLGW7u5pXfV3r36nZnPvNsg1A+D3+CVQVXc5W6Z0mK2KY23yRgxmur2dJiM4032qyc+iZn3MtmWBV8yOC0stCmcXLYb7z7uzrTZvOvqnSMzH9MyBUT7qhNlBbAKmPzRgvWKFxZoiVj0Cti/av/qXb/9m1o92/UJWQQS9fuDIITEZBZmUvpXd/w1DNRd39+6kBakOiSiNysThbcBIKgr5/jDcOvuTcHn16j35wfD/ElCRmeTMo04ooE5UsGrAAmnYXLHKCLBniXXx462/bb5/yyO+lJUAj0dNGzGEhrUNFQNABpQ4RKkK0YXrZAatytOLPWHZQqNaEA6E4J4FX0xcWn3hdgokaQqh7kgYH2U9TxjxTNTrTV91RYPlWNGP118+4GX+RQ9sfSS/P9kPHsMvPogAKDfSow2YfKrp7txJrVVVc7O48E9tnoCKYDncvejWgZXTPoTNzV4Q63UHUCNwCgkP2axZR2tZNImxj1OJWDPEahJr2Y7eN8/9+VtrK3/W8j+Q7wtDjulTU9eZTalud7bOZBa0qkaSERzKCDc2roFP1F9+qLGgFluGIn0QBxzr6pkInCIK4ekGVg1YtAICBFgMPDWSWbzim68/3PDg9p9KulhloFycsDayEt2CgEkLUpWKb491yklvd8z7HNzefDN2H1xPZu+bFEjSXfNTkAWhSJZF/FodeELA5otVLladWAvEWv7DN/59wTMH/+jb1LUVygIlsnOioiOqCeySZUzgdRlPWWrqSrYRU5F/pnjjTPk8MuKbDjKKBx2RLlhasRBWVS1PfHrWdVvI7MWvWDmDLUMHCKgWZEnOgGUZGZ45zGIMPJWKVS3WGWKdF03Fz7lzwzfKH9/7W5gamiK1q74POD/Tlr2K6dhVI3FdBGQZWFWLaU7AVAexzTh5p0reGzkEN828Fr655I4Ov+nD0jZsboZkfGzC7Sxx45BFyT2WpZUrGrBBUPnYaWI1iLUoZafOvXfD92f/W8taXyjoh4DpV13qaAIA2tK2PI7d4FPW3XROtHvMykluuCnLr6QVJe5txI6DHU2B0KSJu876wm6xS9A/xWASmsBYNYP502g2+KenE1iVvaNA63eYxUrLclj2eteuxQ/ueLR0/YFXIOTJgYA3qOiKiFPDSJ/VrmSTZiX9imk5LJ9kqlwykorBcDICH646H+5q/nxXQ9GMTRRE0tpUm706u2Bn52GV/TWhiDwfmcXFYlWCYj0tHkqOnPPQxp/N/H3H0+a7Iwcg7MmFoDeg4sQuTrNOpHvKbWnwYvBwODUCg5LbOwMur1hlfWHRJ1sCHj+avQhWZCNhI+4eMnsT2QrS0wmsGrAeMovzSMtiigfL7c7a3rtn/iM7flr6atdW6IkOQIk/XzUXdzVrdmlWBmTyGtAd74GpueWwoKQZvjz3lq66ghrMmWKkF7m975A2HSSzN5XtQD2dwOo0i70OLYu+LDKfsKh9yZP7/nDG3a88ENwffQ9Kg0WAHSlcwGaXHRyDCLQPD0JjeBo8eN690WUVi9HUxY6DyEhqJd+0Z1QQ6bSYJ8pOw9YozpwsalmkKiK/GPOyi1p69y7+Vdvvatbufdo7GB+AgCcoQOsFG80rTAcIp5bRVDtbLNNmslMFnuoGpQ1cGQPcScaR1pjqGhu2ChipIdtMRvBBaFFb5s0tiCTiUJSTD5+ovSJ5ZfWqtprCaZsogIR5U+T1dpI2zZrc6WQH62hfNocCUGUUgEL206Ld/a1n/uLNtVPWHXzZ6I71gJ8FgBmG7PWEiOSGrap4ZOM2FcyQAaoJU1WYzUAFRVxRk8nkFbXl/+w0n1uO2hb/Tsj4bwpKfMVw2YwL7StrVh9sLJixjUC6iwJInRRAipwOvulkBKvWsrrkLiRWEWnZGrHmWNw6c09/a9NjLb+q2NixDd6NHBSg9YOHeQHrA5gabwdc+0vgtiEfI2tWEVTE3jM5TRLMNO6BlJ0CcW/Asi2ozCmF5dOWwQ31V7Y3FMxAcCJQsYtDG2lTnN6GHeInXEmbC9YTExMOZz8haKeSpp0tNsr8DR2vz37y3XXFzx94GTqjnfJoxsnWJjOJDeVq1bGEKydyCtoycu49NyHJExBNxsDj8UB5sBhWTjsfLqtZ0TO/eO5uUKT73aRJDxBInSwk63S/amwStfN01slqfxaDUBWgaIuzxZr3YvtrM1/t2FK0du/voH2kD5LCXCvwh4Q17JFtUF3NOjb+KprABrkWtsBZXywCfsOEylAJrKm9DJZWLuhdXDof0y9bCaRIE2yn4JH2Sydk3akL1rEDLCN/VjOgwgRabR5jjnbOtu6dM5/f/1LFr995irUNHRA+FYc8Xx4EhInsNo05ab0q70BCaNGhREQehLX50+GqGav4imnntM8pnN1Cpm6Lw9xFkGJhuGYg6XYrk0fbTOJG2cwRhNKgxf7FmKPV9MW5e4f2zfp967rK3UMtwc09u6En2gMhb45bfncSgpH3odQI1OROg1n5DdCU3xj9aP3KQ1W5U3BKG+ZJNT0Qc6V9DpBOqJ5ILlhPvXmMOVrkG+uUD+ZpZ8aseN2evr1Va/c+WfpU2wtsiA/LX2WWMOVMA3ymKQNSlkSwIVvLKK65qhTROgUjnZahJpSZXKWHMNhicEs+lv/Zp6DVKlNF+4ZtqBQWp1YboNJViirPqYKJSVNWvm9QjCIL3zu3IdPgUzVmxzRYQviilp0CZnhk0KjMXwyrq87nV9Vf2jUjPH2f3/S9TVpUt1bB6C7yeIcno7nrgvXYQatztCECbQn5tRiQqrW43bCza0/d/mjHlMff/l2wta8V4mIDdsV6wDAZ5HpDAvUeoT0USJFrLttEcR1Y0RveUA3KsbeFDrRQrlcXBo0nXuXRwlh6LAma/ek0lj5oGHkRMv+pniOBbavGnqb8LALscqJ9HIZTUdlepzhQCEHDD2eWngGXVF0QnRGadvCM4oa3xS+jBt1LASP0R7sJpCOQyZVOepC6YD020DrztBq4qG0xilw1lBypG4gPVG3q3Fb66K5f+vM8Qdjej6ZyH3g9fllAgN/TFBpd1oVBFW4aah9KLaqizAZpJQlagzk08ng4kphbVgEfOaRJvCfGMyhRg5yA3qeqelGHjYG8BfneB2IDEE0lxOGVgFJ/AcwunilBffOs6+LNJU1dpYHCfUFPALUo9uR9l7SoBqgzT+qC1AXrcQGWQybl4yNti8DNI9CWkH+L4K2ywKq3LGvaozv+o2RLz45AwBeEnd0tIB4LbeuH0pxC8SIBsXct2T5VMnXozzCpaWUCQ5Z9GcDHvUAeTVhLmMKYqkJrFs15M22SI3IM2UWS20nwifefEIeNR/woyiOyn3M0HoMlUxbB7IIZMBSPwqLi5tjnmj/RbRjGfmE1tBJAD5If2k1rkAAaI5DqFAxzgeqC9URF846d2jZEQSnUuMWjtC6uym1dO8ue2Lc+3+Yp8792PwnvJg+C3/QI/9YHxb588UIeSBq2pNVZzCtuRkoye9AoxsnbbFwVq63Mc6RZ6rJ8PFjU2Cb5f494X9gCtjvWD0mWgmQqCQ2BWrh65mrhVKasq+suGZhd0ID+5iHSnE7t2UMadIjMXKcWPW34uy5YJ5aYBF5nUEpr3HxaWvOin4uR5YqNB96o2BfbX5zrD4Rb+9/1/njn47JyxG8GxAuZMkCFIy6ZVi1Iw2Oq1+142RKWMG0tZBUx6r0stGdKvJmEHZHmeiQZhbq8Wrip6WqozClPxpPRoRnB2p75U2a3k8+5HzK9jbrJtB0YpUF1sMiGSUBkcME6sTSuBq+fFqaBckdpXgQutqApIy1c3NL/TsVQcqjEb3hzu6J9oX98/Z+8PbFBMAzVndHgHjkqBCfBA9MNaLTpPHa2Pmh7U4Az7AuLv+8B07YkVzcubOGGnKlw+/xPJQv8+SMxKzZcHCjurs2brskJuFCTdjl8T605MZKL6ZY4ZAY7Wa4GdcE6EXxccGhbvbTJnEtfw7Q0e6pYA3ogPlScsJPFHOxCcUdCXsMb3NK1I/Dd13/s9XoNUw6QFiazbZkqosxO9g2z9GvgEWDFbOtrZ30x2VhYE0tayShj5oh4L305ZqAn7Mt1mrAapIP07yHSmsMO0zbpWJbzTHDFBetEA64mXBiOAJWXNG+Avmq/17lyCbwhODznq0Ge49DgXshErU2HXw2jAjTcodV0lDXp0HgRB+icuc0R+t4wPXauCP1ujL4mHQEiGyYhu8gFa/aD1jms3XCAS3e20AD20dJmdAAyEWifA6A6wKU1uIeW83AYPRzeCZ4ULa3xdIBHAzcBmchszGHGJmhpYOrOC6lRpi0HN5LrgvU09HXZqMdOLel5H0B6HNpUc5ud2lsDlo86MDRQnVov6dC2SQeInUBOjfrKR4HS9T1dsLq+r8OUZg4gOrUnOL7/fr/n1Kx8lM/IHX7kaJPVcjzmrq/pgtWVkwPy+/nH/P95Hn8fs/z9bri7CbJA/k+AAQBCtA+eO4VnsgAAAABJRU5ErkJggg==;shadow=0;strokeColor=#21A0DF;strokeWidth=1;fillColor=#ffffff;fontFamily=Salesforce Sans;fontColor=#21A0DF;" vertex="1" parent="63">
          <mxGeometry x="1773" y="460" width="150" height="150" as="geometry" />
        </mxCell>
        <mxCell id="E9kqae5VklVFvgJIegH0-326" value="" style="group" vertex="1" connectable="0" parent="63">
          <mxGeometry x="1740" y="155" width="130" height="105" as="geometry" />
        </mxCell>
        <mxCell id="E9kqae5VklVFvgJIegH0-203" value="&lt;font face=&quot;Salesforce Sans&quot;&gt;SALESFORCE1&lt;/font&gt;" style="html=1;whiteSpace=wrap;;fontSize=16;fontColor=#666666;fontStyle=1;align=center;spacing=5;strokeOpacity=0;fillOpacity=100;fillColor=#ffffff;strokeWidth=0.6;" vertex="1" parent="E9kqae5VklVFvgJIegH0-326">
          <mxGeometry x="20" y="78.28947368421052" width="90" height="26.710526315789473" as="geometry" />
        </mxCell>
        <mxCell id="E9kqae5VklVFvgJIegH0-316" value="" style="shape=image;verticalLabelPosition=bottom;verticalAlign=top;imageAspect=0;image=https://partners.salesforce.com/s/Salesforce1Mobile.png;shadow=0;strokeColor=#21A0DF;strokeWidth=1;" vertex="1" parent="E9kqae5VklVFvgJIegH0-326">
          <mxGeometry width="130" height="96.71052631578947" as="geometry" />
        </mxCell>
        <mxCell id="E9kqae5VklVFvgJIegH0-312" value="" style="group" vertex="1" connectable="0" parent="63">
          <mxGeometry x="1677" y="281" width="96" height="117" as="geometry" />
        </mxCell>
        <mxCell id="E9kqae5VklVFvgJIegH0-205" value="" style="html=1;whiteSpace=wrap;shape=image;fontSize=11;spacing=0;strokeColor=none;strokeOpacity=100;strokeWidth=0;image=https://images.lucidchart.com/images/0df23cd3-81c6-47f8-9071-12245e9992b4/content;" vertex="1" parent="E9kqae5VklVFvgJIegH0-312">
          <mxGeometry x="3" width="90" height="90" as="geometry" />
        </mxCell>
        <mxCell id="E9kqae5VklVFvgJIegH0-206" value="INBOX" style="html=1;whiteSpace=wrap;;fontSize=16;fontColor=#666666;fontStyle=1;align=center;spacing=5;strokeOpacity=0;fillOpacity=100;fillColor=#ffffff;strokeWidth=0.6;" vertex="1" parent="E9kqae5VklVFvgJIegH0-312">
          <mxGeometry y="88" width="96" height="29" as="geometry" />
        </mxCell>
        <mxCell id="E9kqae5VklVFvgJIegH0-349" value="" style="group" vertex="1" connectable="0" parent="63">
          <mxGeometry x="1269" y="35.75" width="90" height="119.5" as="geometry" />
        </mxCell>
        <mxCell id="E9kqae5VklVFvgJIegH0-348" value="&lt;p&gt;&lt;font face=&quot;Salesforce Sans&quot; style=&quot;line-height: 100% ; font-weight: normal ; font-size: 15px&quot; color=&quot;#8c8c8c&quot;&gt;LEADS&lt;/font&gt;&lt;/p&gt;" style="text;strokeColor=none;fillColor=none;html=1;fontSize=24;fontStyle=1;verticalAlign=middle;align=center;shadow=0;fontColor=#BABABA;" vertex="1" parent="E9kqae5VklVFvgJIegH0-349">
          <mxGeometry x="10" y="79.5" width="66" height="40" as="geometry" />
        </mxCell>
        <mxCell id="E9kqae5VklVFvgJIegH0-336" value="" style="shape=image;verticalLabelPosition=bottom;verticalAlign=top;imageAspect=0;image=https://velocity.my.salesforce.com/img/icon/t4v35/standard/lead_120.png;shadow=0;strokeColor=#21A0DF;strokeWidth=1;fillColor=#ffffff;fontFamily=Salesforce Sans;fontColor=#21A0DF;imageBackground=#F88962;" vertex="1" parent="E9kqae5VklVFvgJIegH0-349">
          <mxGeometry x="10" width="80" height="80" as="geometry" />
        </mxCell>
        <mxCell id="E9kqae5VklVFvgJIegH0-351" value="" style="group" vertex="1" connectable="0" parent="63">
          <mxGeometry x="1490" y="20" width="85" height="119.5" as="geometry" />
        </mxCell>
        <mxCell id="E9kqae5VklVFvgJIegH0-337" value="" style="shape=image;verticalLabelPosition=bottom;verticalAlign=top;imageAspect=0;image=https://velocity.my.salesforce.com/img/icon/t4v35/standard/campaign_120.png;shadow=0;strokeColor=#21A0DF;strokeWidth=1;fillColor=#ffffff;fontFamily=Salesforce Sans;fontColor=#21A0DF;imageBackground=#F49756;" vertex="1" parent="E9kqae5VklVFvgJIegH0-351">
          <mxGeometry width="80" height="80" as="geometry" />
        </mxCell>
        <mxCell id="E9kqae5VklVFvgJIegH0-350" value="&lt;p&gt;&lt;font face=&quot;Salesforce Sans&quot; style=&quot;line-height: 100% ; font-weight: normal ; font-size: 15px&quot; color=&quot;#8c8c8c&quot;&gt;CAMPAIGNS&lt;/font&gt;&lt;/p&gt;" style="text;strokeColor=none;fillColor=none;html=1;fontSize=24;fontStyle=1;verticalAlign=middle;align=center;shadow=0;fontColor=#BABABA;" vertex="1" parent="E9kqae5VklVFvgJIegH0-351">
          <mxGeometry x="9.5" y="79.5" width="66" height="40" as="geometry" />
        </mxCell>
        <mxCell id="E9kqae5VklVFvgJIegH0-343" value="" style="edgeStyle=orthogonalEdgeStyle;rounded=0;orthogonalLoop=1;jettySize=auto;html=1;strokeColor=#21A0DF;fontFamily=Salesforce Sans;fontColor=#21A0DF;" edge="1" parent="1" source="134" target="E9kqae5VklVFvgJIegH0-342">
          <mxGeometry relative="1" as="geometry" />
        </mxCell>
        <mxCell id="134" value="DATABASES" style="aspect=fixed;perimeter=ellipsePerimeter;html=1;align=center;shadow=0;dashed=0;image;image=img/lib/ibm/data/data_services.svg;labelBackgroundColor=none;strokeColor=#4277BB;strokeWidth=2;fillColor=#E52134;gradientColor=none;fontSize=12;fontColor=#4277BB;" parent="1" vertex="1">
          <mxGeometry x="950" y="167" width="59" height="59" as="geometry" />
        </mxCell>
        <mxCell id="E9kqae5VklVFvgJIegH0-342" value="DATABASES" style="aspect=fixed;perimeter=ellipsePerimeter;html=1;align=center;shadow=0;dashed=0;image;image=img/lib/ibm/data/data_services.svg;labelBackgroundColor=none;strokeColor=#4277BB;strokeWidth=2;fillColor=#E52134;gradientColor=none;fontSize=12;fontColor=#4277BB;" vertex="1" parent="1">
          <mxGeometry x="950" y="306" width="59" height="59" as="geometry" />
        </mxCell>
        <mxCell id="E9kqae5VklVFvgJIegH0-344" value="Text" style="text;html=1;strokeColor=none;fillColor=none;align=center;verticalAlign=middle;whiteSpace=wrap;rounded=0;shadow=0;fontFamily=Salesforce Sans;fontColor=#21A0DF;" vertex="1" parent="1">
          <mxGeometry x="1130" y="140" width="40" height="20" as="geometry" />
        </mxCell>
      </root>
    </mxGraphModel>
  </diagram>
</mxfile>
